<mxfile host="app.diagrams.net" modified="2024-06-17T04:12:49.893Z" agent="Mozilla/5.0 (Windows NT 10.0; Win64; x64) AppleWebKit/537.36 (KHTML, like Gecko) Chrome/125.0.0.0 Safari/537.36" etag="YyTtHzyO00yFczyhcpsL" version="24.5.4" type="github">
  <diagram name="Page-1" id="D3-369jqrJ5NnNXLoob8">
    <mxGraphModel dx="1034" dy="500" grid="1" gridSize="10" guides="1" tooltips="1" connect="1" arrows="1" fold="1" page="1" pageScale="1" pageWidth="827" pageHeight="1169" math="0" shadow="0">
      <root>
        <mxCell id="0" />
        <mxCell id="1" parent="0" />
        <mxCell id="vTbGQ8BUd189eSrZLIuS-3" value="" style="sketch=0;pointerEvents=1;shadow=0;dashed=0;html=1;strokeColor=none;labelPosition=center;verticalLabelPosition=bottom;verticalAlign=top;align=center;fillColor=#505050;shape=mxgraph.mscae.intune.company_portal" vertex="1" parent="1">
          <mxGeometry x="310" y="160" width="129.5" height="80" as="geometry" />
        </mxCell>
        <mxCell id="vTbGQ8BUd189eSrZLIuS-4" value="" style="sketch=0;pointerEvents=1;shadow=0;dashed=0;html=1;strokeColor=none;labelPosition=center;verticalLabelPosition=bottom;verticalAlign=top;align=center;fillColor=#505050;shape=mxgraph.mscae.intune.account_portal" vertex="1" parent="1">
          <mxGeometry x="353.25" y="20" width="43" height="50" as="geometry" />
        </mxCell>
        <mxCell id="vTbGQ8BUd189eSrZLIuS-6" style="edgeStyle=orthogonalEdgeStyle;rounded=0;orthogonalLoop=1;jettySize=auto;html=1;entryX=0.5;entryY=0;entryDx=0;entryDy=0;entryPerimeter=0;" edge="1" parent="1" source="vTbGQ8BUd189eSrZLIuS-4" target="vTbGQ8BUd189eSrZLIuS-3">
          <mxGeometry relative="1" as="geometry" />
        </mxCell>
        <mxCell id="vTbGQ8BUd189eSrZLIuS-7" value="Prompt" style="edgeLabel;html=1;align=center;verticalAlign=middle;resizable=0;points=[];" vertex="1" connectable="0" parent="vTbGQ8BUd189eSrZLIuS-6">
          <mxGeometry x="0.1852" y="-1" relative="1" as="geometry">
            <mxPoint as="offset" />
          </mxGeometry>
        </mxCell>
        <mxCell id="vTbGQ8BUd189eSrZLIuS-8" value="GenAI Prompt Services" style="shape=process;whiteSpace=wrap;html=1;backgroundOutline=1;" vertex="1" parent="1">
          <mxGeometry x="315" y="330" width="120" height="60" as="geometry" />
        </mxCell>
        <mxCell id="vTbGQ8BUd189eSrZLIuS-10" value="" style="shape=image;verticalLabelPosition=bottom;labelBackgroundColor=default;verticalAlign=top;aspect=fixed;imageAspect=0;image=https://www.svgrepo.com/show/46147/database.svg;" vertex="1" parent="1">
          <mxGeometry x="737" y="630" width="90" height="90" as="geometry" />
        </mxCell>
        <mxCell id="vTbGQ8BUd189eSrZLIuS-11" value="" style="shape=image;verticalLabelPosition=bottom;labelBackgroundColor=default;verticalAlign=top;aspect=fixed;imageAspect=0;image=data:image/png,iVBORw0KGgoAAAANSUhEUgAAAOIAAAC/CAIAAABsYpepAAAgAElEQVR4Aey9958U15k9/P2D3l/e97uWJWBC555AkIS8tuWc1rYcdh3ktPZGp10HCWamQ1V3zwxZCBASylkoB7BEkBBJCJEndah003n33BoEhkZqjJcgT336M9NT011169ape5/7POc5z//B3DbXA1d9D/yfq76Fcw2c6wHMwXQOBNdAD8zB9Bq4SXNNnIPpHAaugR6Yg+k1cJPmmjgH0zkMXAM9MAfTa+AmzTVxDqZzGLgGemAOptfATZpr4hxM5zBwDfTAHEyvgZs018Q5mM5h4BrogTmYXgM3aa6JczCdw8A10ANzML0GbtJcE+dgOoeBa6AH5mB6DdykuSbOwfRDMCARSSgJKAAG0AKqGSISiBSU3WP/p/lvY+x7flRI+Np+6UNOMPfvDnpgDqYf1kkxQrWBkRoigo6gIRSEgQS00TACJkQU6lASyQbGQIP/+LBjz/2/wx6Yg+mHdZTxoDhqEqM6CBUh2oIIOa5qTah6QB3cDQktESgEWloQz+H0w3q3w//PwfTDOkpDmCBAK4SRkkiECAIJL4IvOKQqO3pyeo8AoQGpiGsB+LGl8GEnmPv/h/fAHEw/pI8iw+kbGoGKDrWaW99T63dhfFu04lX/rm3eQzta2w56p5rEq5ERIh/KxGOshS2t1Lnt0ntgDqYf0oehDCMEh5vB5u3RzzfjEyuRGdV5B1kHedcMVIJPr2rc/qhasQd7W5C0SiWXV9qut+Ym/Q/p3U7/PQfTD+sp3Xz1MH66BakSulz01dBXDrMV3VtCwkW2imwJA0UsKYU/vzfacRwGtAgkNA1Xrvzntr9CD8zB9EwnhkbZxXsdSocmiKSA8V6dwGK3dX1Z9znIDSNRkgMueh2kxpGsyNQQ8sPIlpF3W90OBsaw4zjtV8+apeb9dZQxMBF0C6Zuh9kzJ51710kPzMH0TC8JKISAjoQJjIFAsO0wPlHB4uFwoCa6qiY3joFKlBvRg47sG47yBZV1kaogVaYNkK7q7hH9D2vUK0d8QHNppa3LVdGfKkE/atN6Ws+ccu5dZz0wB9Mz/SQgTRjCIEQEhXdbre9v0vOK6He8dAndDhZWkC/onnF0lZErIlvEgirmjSPl0iTIVZAcljdU8I+b65MtRXcqfVYRVAgluBDTxsg5M+BMh3f+bg6mZ/pKQSvR0KAzKVLY8FrQXRT9rsiskD0OBqt6Yclf8AckR3HzWnzprujWlc1UWdxQQrKEtIN0AYMlMa+GdAUbdkgjA20MnVSzkSlDlEpGq+a2i+2BOZie3WNGwlcMLeGdVnj7eszj8Im0i4GSWezUe4qNz6/H+Gtq5wnsnRE7JrHiNXxlJXJlDqjZsl5UDtJDIlnD1zdh3yQQBRxQEWntKxPqOT/q2Z19Me/nYHpWb2kVQksFKPPwgXBRBRkXA6uRLdh1UgGfWaO2HlPQUxCTCCegmlrhxXfxxXXhx//Q6qsRrAsdZItiwMFvnsXTb+s9xzAZ0fHPlZMW8Jpzy/+zerzTtx9VmJo/91taizDeFyPmdLzdskVmd0GEdu0DaL+2HekVGCyaXtfvr2JBTWdHsfY1kIXiwTcMMTE8aiZD+M4OLBlH7whH317H3FTCYDGaN9L8u2Gkqrh1nfyXh71NO9S+SUz7/JaeNVAZ/5/dTr8508Yz/zv9mb/h3x85mJIOAg3SRBhwjylLJuKbONRJb6Y2ShnLGgkF/6UV1zYtAOGMQNAM8IdnTaYaZUv6hioWuipRxifXmz3TgJrgml0BLU/CC+jGr++aiT6zEgmHo296RA44yJeQKyHn6oyL3hIWDCNZ0J9YiW9swcrX8Ny7OFbXKhQQ0tB+NRxvLQ9AGYLYGrDibxiW5176Rw2mCoZkJq6GiNPZFYwgGy8iL4Tw5bpbKqNjKCttTMxm8gFIP0LQ9PHHp0XCFYkRk6ogX0RvEbdtlKcaBtFMHYQUhG5gmiuiJt6bwnc2hoSpg1TB5GmnIl1GtmQyJZq22SryVfSVRH64nnZw07j6/n3+6Cv6lXcx4ZHUohEqrbRSdAsgZOvn4qxnYfWjBtMoXqZoA8VIfKiDSMwgqhuJUyFefQ9P72vtnFSTgmOrQmgsW4TRIqNpQSopIbwII8+ECUcn6RA12RJHyq+vi96bBvyZkMRSL0K9jhan79B7Y9J8fm2QKOlshUjNulz4J+yAyqBABSlHp8oqV8bCKvIlP1XV3SuQGsOtK/G7h9TDb+Boy4T0V7UQEbb0NpwXwXrfPjnr9v2tvP2owdSORsq37DqORyqAivb4GHst/PZdrcERLzvs37xCLXtW7q9bV5HxCWfynRWxailOkcaql7ykI7MVDooDNXSXkSl79+3nxxCdlB6ZfCIEWkKjsXo/8qPIVvhKlpAocvbn8Oly9s+UdbaiczX+N1VA/ygdrn0jweJyOOCYXgfzR/Hte3D3W8Fk6EEItAj/1nnD6RxMPzoPZaShlIKeAVot4PWjKG3FjVWki1GqavrXIDeG1AhuLk4XnvWmGShiXJOre01Uh5GGiYTC47v8RTWZK6qUi4wTJmu4wcGX7lZvzQB6mgRTAQgfur7jKL6xxiRGkCzREs1VkSmjv2L63bC/gn6OryZVUqmSSVvjNbNc5Qsy75icg3TRfngUHy9EXXeor67Fxr2YgoKuw2toTXvko3NvLuFKPmqjaWBXSnXfvHZIjjxnPrVKzR8OUk6YccJMKcgUwr4iFpeRLOIz4/WDPiA96EjZCBGMCeg4CpRW+yfxlXvQP9LoK5lESWRqyFSQHhLfvjvYsA9vNsIDLbN7ymzah9s2IXGnTBV0ssRBlANwIVrohje6jUzJS5RFxs77uQpyLg2AhCPTVZFxo2wZ/faVH6EbK1nFdQ56HX37ZvPMPky0tJRS67lwANF9jcDUkj65QicLeTa9Q5OAPOt30sYoLWD8QPivHMEfn8VnV+rUSNRbUskqkg498PkCZ9tUFd2j4cfHkSu2dk4BwoMJFb1LBkpEdvaHRsvgD69hYLixsIJeFwtK6CuaJQ667vD6x/GVNfjOFvzDJuRdXF9CusbhM19myDRZwo0V/ctncPdbKL5sfv5I8IU1/mBFpV0k6a5SWXoAaLwmHbu6quhMyeew6ui+UeQcpJZHS8fMzx/Hi4dJxoZRwtih3hitpQ26xmaKtaj/NkbbawemyliMSsLUSK2UpO9GckFPZoeOFHZNiJGnvH+4q5F1g6Src46hV6iMvIOkq3s5ffPPjBPdUNK3VOsHGkDUAqIopi1pUqNop9KRJbdN4R83qN7hRtpl/DPNsVBmyjpZRKqIxIjqHQ5TJZGt6kzV5Mr0QCVrSIzg+xtau2f4PLUEjnvYdUI+/HY09Ly47R61qGZ6ykiUTaoYZQoqZwfgXkdmXI7EqSLSJXIFc1Vky9Hn10buS+ponfyVSGmtlTJCGesEUFBGCk3C4N+Cg/XagKnmKlzwfsQBRwaKSGUyBqFGpBpNrda8Jr68Bjc6UdoRXY5MuGGuHA2U0ecgVdaZUpCrqtQ4ElX0l7BopP7bx1rTEjKsaxvQjA8umB8imRYqg1DjlXexqIpFTpAdnsxZMlT3sM5XgozTylWiXFVlHZO2vqdUAelRzHOxpHhy2ykSThBJjYheUcEwlO/j0DS2HTW/fVZ9flUjW4xSo+ipmERRLqohWRY5Vw1UdL+r045IODrl6kwlzNTEdzZGrx4K7CwihBGBiKTgo2SDupqetr8B+/XagClZdbGv3v6mM4ljnggi5Sm5fwY/2dxIFcJcQSTHkKghUebI1O+gr6L6Xb+/4ve4Ou1i0TD67vB7isHtDzZ3nLL+ftGMvf7EJ/2sUsAG4iMFLbXyN+zDje7MfAeJCrJD9VtGyYPuctFdIS06UUKy4OdLzUx5JlHAzaXgkRONlgrZXnKjmtBhYDP6rFM2QuO4keZwgLEd+NxdYaKkeko6WfTza3i0ZEFlSjJd1smyTlRNsky36/UVerjWbFOtKNJSGBWSe8Xm2mGUiP3ob9cKTA2nPEKHDk5pgkDXI6AZ4cE9+FTN6yuZhaPoHUNXQeRdLHTpk+c451qWHRNCRJ8rFlXxo/vNA2+Hh5smZPApJNhjVytd61BG2cR8TWOQGcwNqOZTh/HZ9aK3ilwNiTvEYhdLSlFfQeUd5GvI2tei0fC766ZeOQofIckmbKaW9NRDGC1UILQQ9k+p6EyAEdMBHnwL37s3zFeaXUXGEZgLUEFflcZrpoSko7NFubjIGeDjRfPvj4k9pyzlwIRGNDiTCKP+NihX1wpMYe8H8+KkjiKYBvTbU9Edz5n+ss45GKBhZ7jQqaKfc/10ruLzxltiaK6ML6zHHS8Erx4LWpLZH1rBEJeMBihatvHQZGOqjFUSYbR9waHL6ODoTLjyhfq375Y3r+GKKlXTqSofgHRRLHFat92D4Vewe9p6GZSIENQV53wyV8k6naWccnCGCY2N54rICF8Cx31s3SN/fF/wycpkXynM1RjxSo2YfJXj96KyXFJs5YZ1voquKr6xPnjyAOoaUtpoAI3pv4Ep/5pZ6TM8ydRjYyJfYUbh5X3e19Yj54QJR2UcLpKyZWQKpocM5SjvqnQVJIm6uG2dXPWy2HnSeHaApFKJirQMbeYyhOVB0+1Dw8JjEiktipAjLHeSzU9zQHOQPDwtHt8nR7fpO5/Tv39KjDyr127TT++NDszoJv0OGjrg9ySECowRjIRpcgd4gFhlYjZ/X9O9ay1tG8IX79axcYf6ziY/XQ4ZSrCrvSRjCuDPKvpdxJ6Ez63yNu4OG/YsbOGsAfQRn/evutE0Xh3Z4c4uDugnImKMQkRufWMmwIZX8em1mF9EyjWZKi3RRDHIOVG+jN4Kso5IO6LbwafWkRt64FQYCo5s3PiTwSa6ze0eBkdn94NaOvEqza5P7AdjIYnTWGD0n0I9LWEagW5FjLTOuoViNL5PdrFcktPuMnskntWC9owcyuzJmNCi0NJ4e1KPPe99rjrTUzA9NWSqUVeZgauBKrOvciWZc3R3BQPjYvnzjZNNzgLS2JV/fCQ2Rc8SFD5auL3qYDq7ItCC7kIyP21wnn2vAc8LUHsRN46brBv0jZxYNI6Pj2BBOVqyArkCUiW/bwwfd5F0g/96tPXeBAJhPOtdvcrvGpduSmnFCf2FU/jJAzI5HHWXcaMb5qrm+qLJFMJckaZ2j+P1VuRSB3c8Kg41oUxkF34c/Y0OKW/BS/2osauuOpjSfW2knZhnMzTiFYnW7wVRUHwKyWEscGXWnekr+MmiSLk2dF4IU0WVHEP3SP0bdzeeOEQtMnie8afseuYqRykiWNkKESkThMChJla+pG8ZRaokeobri8ajgTGTdpGp6n4nXFQ23cPoKeFXT+LoTAQ0dMiZQIOmDG0WO0Nc7dd8Me27CmFKs8vqMUHpiEsOLsbVuwH+/eFG1zKRqfLmpWqYV0WqLBaV/EVlLpBzNQxWMPR069CkgWhpz6fvkmF68kiv8o3PpvGMbtj1HSNPoY4e3hd9bUO4cAVdYMmiDWIVaW3nC7K3prpWIDvi/fExfbSppJHW5mb4TJs6L/ujtV2FMDVa0zFoyc3TUC1lsLeOn94v5o3o5LhIuiJRRF9JzXeJy76i6q6gq4JvrhePvy38kD4gjiY2+VhfE2MpW2u50GbWC2FXXCI0we4T4S8eFfOKSNqLzZWYbJ10TcqurvqqMlc2I4/ioC8j1BlTYPhj2g6pHymcXn0whVE26GStLU9o7JzADx8ySytR34joqqKrogYqyI4gXxD9NdFb1qmy+cVT2HacN1kZckh9svNtbJWB/mvBUNM2IjAbsae0j+ACkp6NIzNB+VU9MGoyQ3qw1My49LCmSqDjtozEGLJ3hMtejN6JmBJI7je/3fhIgfRqdEgZeowsZ1lIKQ408cvHgoGa7C6KPHOMkCnLZE31lpCvMPl4YBSVlzExY1TkUSGPjh+P94lypHFE8Rq4ZWy1HQlpYtJMpYqvjRFwOaQ9PPC6vHFtNL+g+hyRKPs9ZdE3ZpNYSrhhBZJ/FJWn1ZTw6DOgs/ejtl3Z0VQDQcz0jNdJsTVJ1UXmg2BSR398kgHJfDVc4OCGMSRKYV+N9KKbXPw/o1hSnnzwjaZvBNnMHEyaHd8fD5gBAsrlxnCOWxAHY+OsZcbLr9hixIaqrCCFFDqSLY2n31J/X2tmSs18kYNoepgyQemSzlUxv0Cr4K43fB3QLpVqBsaHjoMLVLwMI5ub0HHvXG0fvJIwJTvPrh3oJRWRZRlHGla8KUAdXvlF9A3NZGtygYuBqsotn8zWmAGXL6ueMm4da23eiwYHX45BClJ3PIxYCRJL57DOmwg64GqZFEF7KNqKHNavGEqpOS2VtDEIHYYNH3rK4OG3o0+uQE8NuaKfdsiqYZpAWS4cRcppfnJMPbofknmEzLCJLOVRMTarNKmrVxv2LqI9VxKmHEvtVEcnlGKY2xghhG+U8RBt3E2ycO+KKOswxyPniCXFVmZYZqrIuvLzd+ut+yJLG2lB0SwLpXWtdnbt1idv4/kyYOiIp5bKSElmB1tFny2tW+uF7OyYf/1PKfruybFlCKwp4LVC/fA+3FLzk5WIBIAiUg4Wj8hULUyUdI+Dr23GG0frxmZ6heT8cTpgaOPKPnOX3DVXEqZWzp5zFPnzgtxkG2Inke6RQ/5NIzrhID0qMyWkCjI9yrAhc4sr+Mpd/lMHILTPiV542lBRx9qznfqehLU2ZpmbNoRDrglnfEu9pgVhtck000ivzMYBn77QkJgzbJwMOLqr6KF9rYEax9FcTeRKVLbqHuGkz/wCJ/zpg9FJL859ZWICcwqVLV5xTSwlL9DXVximwkSRVpHNq1caQmo/NNuO4RvrVMLR+ao/UCBDnkQkl+mdvS6+tLr55B6hmcFstKGkg+CQbDjLBaTLdbKRoxcpLbXhy8bsKfEk6CfQgbH0KYb3Z2NinRzyr/4ZK5YWWyFxLDR+jqn403poNxZXg95qc6Cgrq/h5jKyI1HCEX1lv68gl71kZwMZIJyhLLDlQV4bHo8L9OKVhClNPzHV8PTLR1F+GT+4N/rWPepnj/lfWxUMVHH9cGOwir4CkgVLFxoK8qO4Zbx1784IUqmwyZFGBQHZHUwhpdZ95+aXtImhGk2Dd3zsnMT242ZPgBN2lLWDqaS1S75Im+0CnfnX3a35DFF+0l6d0ZRbVWhS3w9GBqNvYLA8nStHHyvgxlEvs8zkx2gGLBqVC5b7j+xXTVJymVgb12KxVO2/bgsv39EuH0zZ25Z09v6bUyHW7cM31ze7l01eX0C3y9ThBUPoraGnaKgYWuZElnHM4HCUqqC76N+1g3O7kBH5a9E0YwA8nIgZFwzFfMDG+dxupNTrA55evUt8+756tjy1YDhMufhcdeK/Hmo+dxAMQJoWuDwLjVZGK83Xme2ck9D2O00vOedf5/0524Tz9p+7g0u4mB9jpJHTABmIfDT5PEYegpMhfv8Eequ4seJ/rIRszeSGmZWVKotUBV9cdWh7nQRFo5Rg82ZzFM49zTXy9+WDKSVDRSSN5OoklAcm5PcfpLMpXRTZcph2TdrmXsay9mlmhtjUJYcEtmxZ9hcx9IJsUhHELpU6trRm526ie4r+Kil16G8/oX54r/exMua7UdYmeeYdlXRw4zJvsKJ//ypONj0Y4UELEbUCMenJEy11vKlONMTxRniyZSYDNASL69iULBL9NDwWjGJiXRwNshVNYtaVBTKxrJm7eglbwDywWYew2DWN2++LulYGTJcdthFjB7mCSo3SH/LvW820x+IqNpNg6iKmmkto3//SVy8fTEHvSqRkICG3HsPXV8u+4YlMrZkth/kSZRcofFdU+WKULZOxlivLnEunYNrRqQL+81F1yEMEyxMVEPRhdzYyWVUmzpeadBQovfs4vnMfeoaYRN9XbuZdP+WiexTXr0Sv6w84uLmI5U/i8T3hlp1h6WX8cSv+7RH85H78aIv5yf342YP4+SPhr54Ihrb6a171H3tLbDuMg5OY8cH6ZeRUS2MiAz+0i0JCVNMOZlLspd5GPp30kkkB4fsCz7+LL64ymWIr5YLpX1bAIuF4+Yq+adx7aI8xEbMJ6KlT3qWe/Mp9/zLCVCA0oVZq34T4wob6DRUMlEiqyDoM/aWKImtVRrJVpMkp0TlX5yvUC8lW0VPAbx5r+py6WoZse4SUxOsUpjYvyTLzFSZa8o6tIu9EA0V1k4vrljcyVb3E1Tk3zAzL7CgGSo1MyfSN4ZM1r7+MfNHLlYJMWaYdk2IePXrKpBD02nb2VdSSmvzkCv2Vjfj5Y1jzcrR7f7053VL0qaEBQXV0UmgjmCmN8NI5ITYKYbNXQs5PoRSb/oT0nRPdK5GuBfmYUl1S+ZruGdY/uF++OxVoWwsAZvLKwexSz3z5YBqRPyqnWlj+kEw5Ir0W2WGkC6q3rDMrMDCOVEF3F9BVsgUYqiSqMf5UoWBYlxMsrfgPv8k6IXRjxcySDq+dBrGwgo00Yt84iVvXRN0lmXdEt4vkajPyJ+w8jJcP4JcPTH3sTk0T2WV7+pfXF1jiVTbWkohl9qvM9KeESYlPV8JyQTIV5teni36qYgZW4Dv3qfWvi6N1QDahfRmrTLK1Efd0+HS1vTo+mEYyeDbrFNXaayj10y2yx+oI5crocYLBKjMK+0kc02t2MOphDaVOvXVtz3xld14+mLKmopFb9+FTRQbiE6W3+oomX/ESFXQPmUVDM18Zn/rS2qlbV5xa6pzKFesER43yNQvLyK2M/t8/4h834SRXSTqg/7rjVT0XInI2E1+pTW8hUZT5MSQL6KtgxT54UkBOafgB1M8eQlfRGnlFtWjUZNc1u4bQM4zkkEotF+nlIjOiMgWVLoa5shhw1WDFLHT0QElmy35vzesdR3cN80bQe6caHJZDT+K1Y/A45foIuOyWnU8CbXFBmNJXHDt5Y71BoLHP4DNVkVmGbDVKlKPBGuaVMVjWC8r48t3hkQlAiWt4yr+s1BOFE0Fz2VaR5cJFZdwJytM5zFT+/Eo19oI8OMPSnyeB59/Dvz80udCZ7C5zWUOztYKeIgZL/v0HrWXG1JBOYWrX4FzjK+VBh7/fip5h0VfRvcvlN8anZ7gcmRJB2KT47tQbpzBYOJVxVLKCxDiWlltfXh9+5179z4/gl0/gN0/y9esn8c+P4bv3yS+si5aukoMrkLE6Z7kiEkN8rviAjSE5bq4bNktXypEXgp1HoiCkn6PjaG5bkNpxOBZqpReAeYf0qIZaoXX36+HNFZWu6HxFZpmRgmQpSjnoK8mH9vLaPtAJ0v50V8/eyzeaQmBvPbxto0g4WDCm+1YiOYR0SX2i1lq/H9M04ARCprwJ4JCHP74g5g972SpyZU0tkIpJL5/+zdPWUSBZ77atZWod8jFZIMaxLdBsVzZRWIfCL5+hKk6yohIufrixyXiA8ujRUlpLccSgv1jvLZNknRlRD+zA8ZaeDrmit96s2PVEc1MKTPnYN4Vn38GGP0V3Pun/44bo1nHZ77C1mZLqK8lszXQV0TMkP7suKr8e7pv24f3PkC0DEWdgBQAh1rkVQPL0aZja5VkEZWgDiZljUfDTR3SSoSmVH8GNBfSWvFTF5It67etGi2bnZ7l60Pl+Sy4fTA0a24/glnFkSypRM1lHMQpaEv/1BN4LKTNDF59li/K5V9P7m1i6mmNtrsTyS70lsoG+d29Y98lYsR7Y96/izBthDGmASrFwKBmnypArRC+54uQOd5tJDJmU1cn/3GhzR93GFf0goidcbnpT9BSZBph1cLODHSc7XfMEkX53Sjx7WBVewTc2ka/da/n2rBlZMGlH99ei2zerR3Yz6hZENlavhc0K8Tu3X85c51nvaM9Enpby4YNYusrvZtEV5Es6X/PnVzBYFlv3ASIkieya3S4fTAWiFw5ioWuycf5nWaeL6K/K+/bFkT1hEDCH1JBchzASEv/6NHoK9ZxDbYWUQ+f/19aH703ZHJTTrvpze54AsKJScYie7hsTnM77E/C3HsLNxVZvjdoT85fP/PRB7JhBC3rKw+Nv45Z1QaI8c3NR9Drys2twkpn0HW2KCj9KhpEM1KFpc88+3P6wlYwsYIlrBkaQWoa8Y5aOYei5egswHtdAlodlQmvIdHSadh+KAL/FJKjjoRl+QeVL0ceK6F3B/L7Ecvx4iz7cAvSMupZTTy4nTPHsfuQplsTQPCP1Dm5ciccONMlRYgJok5xebZexYQAh73wmSLsRRcGLTMZPOPjM6uDAhJ3vL8RLY0iR6yubT8qoohKKBAw5g5aoG7wTiNvumV5QRH5Mp1e3eu6Un3G8H997/PZ7ppeU9fWrZH9henDInz+GP75iEHTqjfc17ZaIBotPxIpQ+M1nj5hvbjr1/93hJ8ap5Zsf0bmqHhiZ/PGm5pEAUC0DK1V5ieMc/XSe0S1oHJjGnc9MLx31uv4wM/D74J83NbdPhCyj6k9fsmHc7hG5XPsuK0xfeAeLamHONb0ulfFyLvorcsMuEaoGfTWo03UjIJSMmL9mfr45TLAsk8lXVLJEEtAX1gbHGDEEXSztNmNL23Ia5ZTagpK+wpHATIZSG+ErSGk27LQUwTKyqzg1L3KRKWK+i8QwFoxi4Ur0FvClddg/rVi/scPNSGifBOTYpc8lW6DgnQKc7bh5fCY7qiw3tJlm1Bc/uGf6zRM68EOtmW93SRu5hz7L+PGqVV2YN07gqaPYPs0lKcwMK6j6lvVwSae5kl++fDCFMTuP49a7okzJ77Hx+qyj0iX84mHzlg8u3WVdGw+SNmUdeOEoPjFq1XXoFiBM00V5+wOyJWzK04VhSk0olljwofXhBu7ehR9uiW6/B88cA/mbgTfj+6VX5ULHSxRJDsyXg1yZmo9Lq6LrD1hQDb64Vj+zM0TodUq4Ihosndqqp8RMJo7DlBaoQ/mvHx4Ad1MAACAASURBVMPtW9A3SqnennF0l8JMCbfdpd84AuH50tZQuQQUNE+LSYaMI3BGmtFQLW3dtM0mY770CExcwimu8FcvI0y1ODSD2x7U2cJMkr5ok3VlysFCV4y86p3g4+5roaXxI43Xj5jvb2rMp8yn6XfQW6YPNTPSuONFO2hQzLT9ZgwJQZLCn3IyRPkV3FxtJorhdcP45voglKEJo0iLCc9sfD365kaVcgWDXiWTdESm2lzq4CePY+u7gWhKyYSkTif901Q7kgJjFwQjoyqCVhSP1N7Rhqi8gBtrqq8cJgvoYfxC/PhB+Q7D7pfk0ySzhIN3ZGWxECoplQ8haJHTZ6xbMe2rY5Zj+569onsvH0xJAYn85a8iXzH5gkkNB9lxqnn1lvVNtalfP+Y98ha2HcEL75rxbebrG8KuChaMIVUIBsoi77ZSFQwMtZ49gchYjF5oqU8SPhnEAlj2EvpXIVNo5SsyXcONpeA9krBlKKjvJ6R+exr37IqcF6LfPd767RPN1a/Vt+7X77bI0zYW6XEwvLMbFPNB6PaJPbXWzyQlk5KMtBJ8Ey35xK7W0jGk76TB01PB4hXyGRY279Sf0LYl1jNnS/jZE8vYHqLyFUdz+w8rNn2hJ7vtQa+ynZcPpqzTZbDtKD49Wh9cjeRQ2FsI+0sU8co4NAcZcKrq/ppKO+HCkWDhcpMvksiXdJAYxcfvCH/zJFjUQYb0Xl1g3Ur/OT8QPbhD5ipisNrK2rVX73DLedHG1Cn6IyMZaqvxF2jMCJwSOEE/aKweYqFmxyFO5Zew2ZwkaX/a8U6j5UXPHsPnnMkFI2b+HfjBWu+9QEr/+CWc5G/iq5cPpjCqybEsWv1S/foyUquxyIlSbpR0ZaqK5Bh6xjh8dq/gEJsbCpY4dF4uKFDk+2MVauG+PQOgxUghSRdtpmPDf5Nz/8pR3FRt5kf8wYqfKjP++a+P45QvIYSRgbIZbbOCeDQrbbqQVDbraPYvq4VmBdYuAQaWdWLLApy2pO0cMPniSfziqeadz3q73jPUBmwbqLiE8370vnoZYUpACGXCSU/9cEurZyUGhoNsjeSSzAiyw3phlcy6/qLqL1N457palBqt91W9ZBELx3Hvm0Dkq7Blk5VY+LP9zRDBW1PmB/fprgoW1qzwYiH45wfkwWlEOhBUG/WkEDGhPV4aW32UyJKZqBtJXybRFM/eFzhL+3Ofv3f2OFTyi0MSBg2bDyiE5zM7kS7Tuerl53fcOXsuI0wpYGazN6EPNPHvD4cLi16q6GUcma/EpeiQKtuiDgWkKsisRNJR2ZHGrSvVmtc1xRWkoMAiXSskcbTbjPFmlr3CgiH9Fdzg0rT47kax6xgzVsGaYHSEcianGgott1nRPwsXzvN2O4PRS5v0eXg7frKp8ZHticiTsmEvn0oBBvpYu2uZ23emBy4jTBEy4C45kgnpnZgS5W249S6dKrS6RrRd+5N7tqiCgbLOj6B7GTN7froFW/eZIJRRMEGvoCaTL571z1zE6XfG4KV3whtXI10z6eVMlb5xxczze40f+IFgPRAgbMTYNKGV/puFqThDWD5rHI01BE4f/C/5HZsTBOss8vkmImEr5IUYVnggvfuS2dJ/SeOupe9cPpjSB2kLxGgVGl1XRke++tNx1F4S37g7zDlm3jDmDWFeETe4qn9c/PB+f8vu6HBdhUZBKI/VPCOy7SQ1T0n9OG8TCt99AN2OyhWxqBx+rIjaGwhF4DGXiU8HGcrCt7aH/fKZdZIkVmZzjq3VysT2S7YZY3Rqm/dKShOpIzb3msr5Vj6jpRjXmNs+pAcuH0zbNYSCEkLLiUC/eVI/vS/Y/Hrz/jemXjs4dWRGsCyjpiD4hcDSQGCjRB7zLIncE2t3oKvAMmV9Lj4+NPOzh5gU7Z07cV/oeDbfjy2yT0BkQKEbQaFUf4KWcGwOUy233aVc3L4LtuH9w/AkFMmwSgGyYdXVra3SOsaGap/opjb6+9/4q72xbMMwtNXToRXlk5gnEHHRGkqEEX1dvmYmdqebZIFXZgiBCbIsaMxhQ8P4mlwIiijqyJu1jNp0zpWEqaHSCJ2g74dtmJhBic7TAwxT8Vlmvk3D6dJkCSc7Y9Knf1zhtpV+kjFYnSiEn1yHl09CMBDZMawU6/SZKDwc4XiIyRYOqdZBhaNhcFTENcQllE2o6vT2/OWfY8CMOQf+foGZsHU0wPFIvKP0URG8E7BMgO0UK87yl5/kAt9kKOt4vY5jTdNo4aSPaQ/HRet4aI74CHRD4VQLciZmI17gGGfvtmlBsdkTzujgQISDCsdaZqaFiYB8yJN1IJyGbp5eG5z9bb6/kjCNx4tZCDImTtVDaxnYtbaV5osXPG1hivhx5/0kkO/age7fNVIlZKutZKk1/ArJVtT87DhkrhD5iJ5/N/z+/Y3v3qNuvxvfvhe3bcCPNkYrX0U9ZMEomMAq35zbj3/1vzVN6fBwM/rpU8Ev7m9+dxN+sBnf2ojvb1A/3YT3WlwIWs1+6vf9dc8eC9BVX8K3N07fvjn4zr3yh5uDr25RP9oY/fA+rH8DYdTQvF+dnlZTIUxH8Ccb0t0qbrsv/OEW/PDe6Eeb/O9t0d+/z//xPcHLh0kMukphyh7mywqLcWwUFHykKI3kYtz2xKyiwvl9IlEnWUqGkBOe/OY6zCtRrC9fDr+w0ew4yUr3tvh4x7Yfq+Hh/jeRGQ4TI+gbYsR/AaUqm798ImjRiJR2FXd+U/4X9tAHgf0TWDwqFhV17whyRaYwJMtBrtA4xLrV1kX8V7Cgz228MfgfXYAf3I//u6yRKLF0YI/DxLV8gVHrT64i0w2BZlS6w81SuX2DVduwsEAHTmYZi7v2Dut5RcwrmvSIeGA/mUdXK0ytlzLW9ozARPeIe2iW0oNp+c8XHCs48/kajFU/sKs+UELvKEmWgyNi2UuIRBixwDP0ubbphbuWo6V8fB9yJZGumT4n6K22UmO6u+b9y5NeYDlW1sy48BH+iv9hypN5r46bV6jFrk7WTKbSSFWD3rFgQbF5iIaRlZbqeEi7iKZRMEX+7AF0FfyFFRsIHMGNy5uZMcyvejdU8IPNZoLzVMcCW7TN6s8doidnwSgGRzHoyv4aBoqaKZlVDBblU/skhH/1wjQm4p+mbsTedf5kTIgu8Qui1LpxPG3E/4iU/MtDEWms5SBZwmdWipfeBSTV0PkAdHwjpRGTOLFxb9RdMAsqJGJ3jaJ/iHqA//YUnwaOX3ziOx9GLgIb53zU6ps2dzdbA6vJH++qITnKtLBEgWzdd5i2ah8ZXt4Fu+icY3b6pwqahgbPdcNRvkCYxpnfC0axoIz8CuSGROnRadLQOtsM5MEouLXyVm41uitRfoQSIYkKUkNhooiuMgsK3/+2Jb5ZnJ5/1Mtpm9renO3SeLLnjeewyfxcyVphKrDVwrj/TI7Q7OA6ayDYa+BR7KTHPPi33zNfvpsBgmyhmSzi9qfQZPkxDf6+GMuNhCjv8b24qURC6qJhP1vETSNTiar8162o+0w9teGrjoF/fn93vsdO+odm1BfW4qZlpq+s+wvhkmKQKTczq/D2dBRXQ/1feWKMmAErsXeV9cJC1O8yat1TRX6kuYjNiLor6C7Lh960YwqvKL6p/Dl7e0/viW9zXeHf7mEaY8KZWVwgRjMs227yxdaAqzIV5KvY9Kak1PcVh6lCg49/wOGtBb8lWyKAr1oQNqRECvopq6zXDgTa0wpT9BExkxJKhAYttCz/ZOqe3WLJKHqqrYUj6C9ixV5bf9GGyoWYfr/nPhQhloHnPbgX6ZJJsdip5uhVYfnTXz+BmYjV0S3sT9+LDz3ipXzA3uGDDb10tVloKeEZxzAjr2QyDg7XrZOIMkV//cbwBmh8f7OcX4hlfpk60VvUuRrxmnORLetcWS8eNW+8p6073DLVI2pb29rEoP8mklDeDFAXWLsdiyoyX8P85dHCUeSKrN+Zd0kqypVNxqXc4mNv0S115WHKYdP4Te1vO2XW7sDIVoy9iKf2kZoUqlg9XNp4TRu/vYGOyHPXBl4kI1uysRmIaaNxSmFoK/pHkBoT6Yr+0nj45qkJSldICC0DjtCdgmUOpnFPtYVp2qXdnyoTUjQoWZ1a/nhLeGCCJYM5eUkrPWQilifmLGkiFRphXnhXf2VtmB7xsjXEMmHZMle6uasUpgHd8S9PtX7xyOTCosyMYMDxvjo6s+INc5wxoFBLZpa2dVgLuwaEbkE1lC3VAWDKmOfeQfFlfG0N8iPIjIVdLn60RTeEb3SoWHyOLi4TdcrmnIPpB8OU4nNU+p19UQfYNcu3RlPsZZrKlmDJtF6p7bwnvYkGVbfSJdI2KKpcscUCbFnuqxWmEkcE/vvxcKA401NCt4PuqpcumE+vCF48xpUgM0tjx9T5wx/DpS0FpqBABj70cwfxn/efvNVtZMp+ftT012TK8eYN40t364cPWyp72BIwLX+68zXUHEw/AKb5Kkuo5WtIljWTKCt831fGolV4+E1ptM0aM/SVgFwFP2QSOsovhamiThZV2spvZWs2ddE1ScvSvBonfRW1/jSJL1WYGTewmjzoRWtauVEmza182Rg9qREyA7rtHM1SOp5nq5VHEs8c8v5hdZBeZq3yNWZBRXYtM9kSlqxFshR+8i753Ft1TTaVhmh1brvNwfQDYLpwFN13+jlHJYtBvkome3IE+WLU5eIr64KjEz71vejJjWaTwvT0I0fROxxkq5IQd6i9mnZ0vhxmCl7aNVfraKrkKxP4zCiSVSSrMrEM/U4zVVRdDmqvaC1Y4sGnfk6bxavUTI1WGi2lXjuG765r9RQUfc6jSJZa6TLyozSbEsWZTEnPH5JfXh+8epIVFWnUt1uSnT9ec9lARM8toTggnr+EGigjvdy/ZS36qyLnyHRRp4qW5VNGckT99gkcC3RoHSxaqSCUu0/iE+400emibxQUAK0gU4wWuv7NK5Bx1dUKU4mth8MllTBZ1YmKGawgV9L9LrpLYs0bOoqoU2KD+W0IDQqURYXCVNRc9rzOjVA0L1EJ+l31KQffXI+v34vFoyZVpq5n1gZO/uOxKNQRZaXbQrLdzjmYfsBomqMclfcfT+PrG5F3Ra4Y5sfRVUW/Q69nsoJ1r8Mw0RE6CI5Nh7dvkX3DvL9JukV1sixSJQxU8JMHox8/apnEDqf+K7nSP98nT8kc4JkDpr9G1ZNUReXsci/lIj1i7tmpmTZiAdXez6nprYBUe04GX15vekvIllWmGH5xHR58Ux+cah5sBE/uC751F3qdkMITZXyi4u8NuIyKZWvbwfLcfXMw/QCYpsaQKU7dtxObdmHpWHOgEvXabAuuqCpRhh2untgfQYWn6q3iC37S1f0OK8pmKEuPdC3MDOEL6+TLx/Wyra2kdUJdpTB9ar/qq+oYpvkYpg65z/futtlNHwBT6wEwkXr8oBq0nZJxcP2IXrXPCvow93cCpr71sBkoh5xcXNl1R/TIAQFKp7WxIs5FqP17DqYfANNkCf3V8O7dmIyw/Nkg4ci8i8GC6aliwPVucswNQ/jKXd7uKTyyB0vHZX8VC8shdUBGqQibqKpPFqJHDuOkwK+eCbMl03fFHVIXGk2f3CfzFatwVlF569dI2qySLW9ZmFqYtB1N6ahSXOaveRO9JdXvmGQZN1ZMMKFBpjTdIVojajW/us7WOqt4C4pwXyCRmqy3zrY5mH4ATDNFpF21cbeBbB0N8aVVkxkKz4veKgZGMDgykVpL78337gm/vgGp4XBJodVdxbwKkmVK2KaHZjbvYILQdCD/+zmdYbz0ap30/3KYMr+EROC1byFRNv1lnSxjiav9U8yEbliWsCBdLPzyGnKashWvq4TqyyQ2dy4kNgfTD4Dp4Bh6XfPg7pYSDaHk9vfQXwmTY0i5NuPSCXPjqruAZFn1OrKvHKSHgo/Zal4LXdZB/vUT9chWCmzJ1tAzilEom9p+Ndqmf/mkz6UnC0w8fRiLalxmZl1cN6JLb0STVq7cQIQq3LQn7Cv6iTLSruxdrp48HOeVzE36nc0mpz/VdqWfr6CnHD26J5BKKhVA6RW7kCs2s65PJ2iVSby9y2XfqMlUZNKW3MjUcFOh3lcMv7kRu1uWy61NUwRDT6iEVRC7Sm3Tv3wJZVjNGFIdmFZf20TaZc7RaUfcPIqVL6tt78mXj6rV271bxriESpe5hPr0qDjAWMDcEuo0+jr+3Ram2YpOOcHmN6Eki/WGSgoZ/n6ryJdU2jWZok6MI+GahUXqY2bpwMFAyc+Uwk+tFo++jYatQO0rv+Hhd09T6iZnnfxXcjRt2yHSqNc4FqKnqvoLoBBuGemy7C5j5XZIq4LL5Xxb4p2h/hlU2JKNsZcwMGxVJ5yoxz6US1fhE+uQr5neis47ureCnoK681n4aIEKTm2b02bn3KQfd0pbmFJOoRLe8yZp2LamtIIOD8yo79yL3EiUq5D0mHJYQi1XQia+F4VocBTVbWjGIsCssRm1AvzhGfvJK76EagMBO2vvOoqlo5g/KhYNU+YkXUSmJOY5KLwIEfkQTNqyBLxzD6CMRZtNmntzCj/bEsxfToLZoEM2+OCw6hs2uQKlpTMl9BT0t+9r7pik/In0A0sePveAbf+eg2ncLe1hytK90Za36DbkMpcpagghnjiIW8dUZkQlR0RunJq12SplFlJl0VvAfzyAIyGrApP7qxAY2QrVHU9xhLpK3fsGes8Jc+sKdFXkYAGpUUIq6+gbivjtkwijCELSs98uk9RKyDaZ1s56UOKlyel/u0elnEbX0HTPSCtXRXYMiaqVuRsKv3dv45WTIQsoUOwO9ldbWJ67cw6mFwVTatchNErWXsXCITEwwlBTqtJIulGmaPqL+HRNH23B6KZAdM3AVMHsn1BfW6d7yqqPQpB0oGZdzC/gRw+gFTGFma4jPsvnbRxHWwp1m+nOzOQjddzxDL61UQ6Os8ZpsoKbKvKrq8LhF7D9ZCAN6/BZErMg57qzbQ6mcT91OppSakBDt04F6p8flJSsGxY9NUaY8i4Wu/LVw9DalwxX26S0a2I0FTCHp6Pv3SMTRZN2kDkdiOop4isbMGWzwTVT9tphSnHaIP+E2ZR2YaSDENg/ZZ7YG2x6Pdj8hv/sfrnnFLOpaN0q0uytYqMtcNrukOfvm4PpxcHUrk6FDkN1cvskbl0VMCJlmdSDNTP6pyhCEFITiZypa2Y0jWBOetG/PqwyRVLis05EjWYrG33TCnWkYbP0OE+33UIWr2UdWytPopmKwiwUllqU1AqTVKXkCiw4yaIQ5NlbPTOy2+ccUm279II7OxxNZ8uoGSWNJ7X/6HvoL7UGR8KBkvz11nCCNT4U8yU5E147MBXAdCT++2nmnXVXdaYc5EqkymYdZMrh26cs5Zv17dtsxrQMy0bxko0JpdZEpGFSPwm5cfFcSKN8QU2NYFYLjelQzBBvc8R2u+ZG07hXLgKmsPW5Qg4FIeC+FCxciR8+oHdPCHL5Wf0zLthBJvG1sYTisyXU+PYoSUKXWlwwPTVkizrv4IaC2byXNRMtOart4Hcueu1V2+FUTikdNhHdvwsjr0dPnwSik0q0eCgW66T7pMOtLUwHylTL//UTxvd9G+2KBS46PKTVOmOCDz/PGg6du8fa5ULli+gZZfzmnUYExbQEXty5ffMBbeNH3w9lG1uM6/xPdwhTNjBOspvNtGN+SSM0rZABgPfPYpcb185Kn2tuqTbv0QNjyBXV4pLprth6Jg6uL5iR55rUa2KftYXp+Z1JYXk/qsOg6aO2tXXzMpH+w8wXVp16Ze+M1aUA5GyEqs2X2+1qC9P8GG4YV//2ZFgPSAqkUcLPxamvZ/+MzynoXDjzijNnTyODEgTtTtx2XzuY5iq4YUWUrpi3GiyXa3Pc4lXn2S2J35/djPj9bMeeAdAFKvxdDEzjHLs/+6ntduYsfJauJZhqE4ln38OnV+ts0Qw6qtfhSj/jmvkl8711fkS1k4saHLSHOiSOTujb1lHmoG8M3eXwN89gOoSRvnVHWey1xcF5O9vCdPBO5IrmD4+h7nEoJEdAN2MZgQ/9aVO7rKMxHkQvGaYUYhkWf1/G3mk+zrT6NHWJP7Ql8Qfi9rC4W9yo/x2Yvo/Z9zv42oKpgRBvz+DbG8JcGRmHsWDyTV2ZcLG0IPd5scDi+1f3IW+sYzQ0AjMt/0cPhdeN6rRzPF3DZ+7GW8dA9WeuMOO8xw85VPzvtjC1MRX57U1Y+zo27MJdb2LTTmzo7LVvQoVxhjJTZrld4miaZSa0t9CBs01u2oH1u7FxFzZ21piH30YzssDkiB6LyrQf2zsfTTvq1mttNGUR5slQ/+qRKF9GL7PtLLW7rDJVJIfM5gNn2U0ddICyVaRY0yYyY68gW1CLqGyq826w+XVJDiqlfi4Vpl0V0TXqJcrBYNXLu7pvjDUtBl3RyeuBXX5TWLetVcSwhlwHFxZ/pN2kn3CxYHRm3ggWjk/0O6qvhr4qBl3VSWP+YX10shnNptyQpD4rs35+g/6mYUq7U0mho5XbuNhPrvByBeZwZUuMm91QUv/xBENQnVqmNGKjCIoxO40dR/H5ItMAB6vkCXxvc3BwmjPbRRztArlQuQLL8C1yMVhjO/tqQdYJs5Z8fvbPjK3HknHIVH//tXlnOMMqunbVNSsceD4qLrCnHUyzJQw4amERi8dl3kG+qnJumLW209mNafv+C3fhWEOE1osZ67pfaHCfg6mE8R7ah2wJ2bVBZhi5iswXSOD/WCX4ymqIiIvzC9y383YzBKIlQmUaPpr/+bD4u5rotnk5aTd6fD90xEQ/yAv5Ys894PuTfqpEayRWPel2mBWYKKKXJayQrYi81VRKOVRWOvPizGDOed2zSzRoQVoxzEuA6aBtT9aqnvSWG8kh9FajbvIVuepPn92MC7//3DpzvGVCWh+xFJKtbXZuH/Bv3gCD79/7vuqJzliRkowrtrzFD8zG9NubDG2OqEEhEOuQUufH9JlOffWonhilIggT4nALn1jXWFTQCXf2Nve5zVyFHLCnDwBoxitV6kbynXXjtLl2klQ0w6d062uI1+q48Y8yVWslizzsl9fKo00AdS672UlUJOboSl1OVm48/5DMxpLeA3us8IGDhSNhb4VQ6OjlkE6ROi21QPiWsXmnbvB0miKY1hnVNrv7/JbEC0lt9IFJfHq1+HgFS5yA5fmqnTWmXZs/fxeON/UZmGK2vlmbsyvtAf/0sLxuWPRV/WSJDpk+R6RGsHmfgWlqDY9qiJ2mRXDGgycMtYz9QN3xpM24ZMbpqeQQuqixIDYd/KAqbpdP6swuM20BXY1/edzrHqFhymQuF+lig2VnSyg904qogc/r53qUMxRjn+29jURnS5lYvN4/AgxtNd0j6CNE1OBQOPQGWpIZ1bGviOaYigsmzvqJzrlD1PyJ8OCbyJSDtCMHy9PzqdLR4cukiiZdMqc/zz/vfSNqkNplnwsOY+1FCM5pRvwn76zCOxP4wkrvhiIWOyJTkr1WvO70KTps2OzHPr9WH6/bdHBO9rOd0eZh5XCqfIOfbGGVjgFH9ZK/O9NXq6eK2LCX31Wx67Djiq7sWKWFaYUG05H3u6dNTwnzy8iOnswOczYYLKj79kYUurvAdvlgytKa0kPEntqyK7iuaG24eAQq+bTtKvje+snDTetEjzNJWXXT1sPlhZ63MQfKl/CIZh2FiPbMmM+v4GFTrk6UsMjRTxyLS0JTgcNKa2sVF0NuN2H5oCr8g/vxyVXe0hXq0+Ph4CrcslJ1+Fq6Qp79yaUr5GNvCU/E4LQaaRejTKZYw1ztncE/bfIWjeKzY/hEDTetuIj2nN2YW1aq72yWU00hZjvSUh/O9m2e1bsSYlKrXz4hl1TwqTEsHqfG6mdHJz9XUw/sldYrCgkfHase8aHgrEKhxOlwxnmxdet4c9HK6OY1p26p4uYxfG5cb9lvvHY3JW7X5YOpXUKxRLExODyp+lcyEzrnmISLPpeDULKGT403H9tH08cIltpl0Q8OqOzTs7rx9FseMZiFKS0EobRaux25YtRTkz0Vsqe/tR5v0+FpR1wKVkSCEkAXcAyFETmvLbxxDG9OYN8p9eYU3jp1Ea89E3j/9dYpTLQsm5s/LhqmlNWQLSXVzhPYPoU9U9g9JXdfZHvObvz+SQSW2GOnpg+CKU2UyD80qV87hr0T2DmFvaewfQYvncIJQVl3E2frdjrn2zmE5k5IOV4p99XxygR2TWDPpHn7FN+8cQwzXsjC8hfYLh9MY280Xe62+s0vHqn3DDOJNuGaAXLA0MUFgfzDk3KS0uEKhlcVWIIJ5/7zN1qclv8XV7W1tux7TfXje5vdpSDtNvM1DPxX+NutzZOsoAGEdSCIrFh6u8NZr4E1MNibXJ3HXKzzAzyd74kbLblqiR+3zqd98hE4CPEbvEAfYop1evn3X/aafdQZDLCb1dFu0xOs2mHvFsXp4Icm0gELu1gVOt/IutEclNt88/x7ZPewWgFPbqsbhpREM4YJmCryYVoKrdBq3dg8lPaHuHwwNfAkL97WW2KdsUaygJzDFXS+iIEiul2VcPCNteErxy03WpJSy1IdsQ/lvPYrWAlT22HW8IPRZKM8f6j55XGdHcUCB4PF1pKKqmzDsQhQrVjp2Y6lbVxV1FojDSuAiYyyAhjs3L8ME/ZbvJNkZcaOfYvVThdRmmVoAh+RIoNDSx1rB11Ke2a1UN+f6i8IU6IqBDwuTmNJT46hsw+MRScHECrMdrYRpBx6PXY6O8DyiFhkwhbIpiX8ISVZLh9MgUjwsZJaU/6yIfDltbQg826UKmDARaqqEw6WumLldlKgjZriEjlWJW+3hpKsV0cQGyMUn3Xy+QTQEp77NPLjSK04mnKQG8EtK6MN+9CKmVSc7liI4uzh4Mydm93LcUxZ4mpnN2L21g1qawAAHwlJREFUU2xmPPid5bJlnXs+aizVctbuDz8wL46jevwM2tGr8xGs/eH5hNpoGP99IZgSTHGdIns5gkZLy1J4iLUYZvzVcWP4QR7Uk3xi7RGsA2Q2USPusdkRoX27LyNMKQnBKndSBhFYYfaul6Z7SlhSaiRc9FqveM6KoPzTJnOgFUU4xQuyNR467hDSyY0W7zbwn4+rrpEmlQpdjtmfWCE2vs0qjJC2bA7X/HaUtgjVF4zItO+18/caRZVgPlxW6hMUpg/jc3HpxofNPnOdX8n55/gb3nP5YMoCJYpWp1G8lQLYfRKfXqmSZZWu0svYV6EvKeegvxxs2KWBuqRNJoy0frfObpJUNpcM/oEJeftmzC+id1T3u2GfO7NkLFjzhh0CdCAl7UWtY3Z1HG+/JAQZJhUGUpiQ8NTMl9GScVKytmlshJrzt537OruSuU+d1QOXD6axjRVP03Y21/XI/OFp011FqqT7XNYVzxbCdBXdLr6xLmyRhC/JSfqz+fmstrd7yxwoBeF5QgVHfHxj7czHHSTGMVgxuYLfXcXy58ypFqn+9OOeDdN2R+t8H40sFZkWre8J6G0zrC818pIq/Sl8+jhOBFSrg2paKvefHTXmE/3Zrrk/zuuBywdTQaPbWvF20aOFp1T4/LtYvEqlCmHewaBr8iXRU0V6FKnl6u43uLzl6pK2S6dDHav02Fp9tH8xvaeB2zbIBSVb/muM6bkLhs1vnsah6Vnry3YIocLiPuf1zkXssE4zAe+tSfHv93ifcEzPsul5y0TXMNLDwTfWNDfvxCkfit6wPzvPHEw76eTLB1PrX7ckIWLOBmZUdMrDvz7k9bkyXUauIAZGGahMlagT8eladLjO+rp2gTzrTPnwSxJoQNGjapNLPI2dh/0f3tPsdaKMi8W2tku2FK18VTRspQky2C9qBX6hFkQiCnD3TnVj+WS6TF2W3ipVgplvORJ+rIR5o/jpI+H+Ca0UjY2zwXr2+wsd/m98/+WDaYxNJn1CztaBoLkqH9+jb1xJKeF8UWVqyJVkzol6qui609+8l6QFrQjWTu+TAp1YDLeGjPZHIhL+myfxr4+KpNvorqGvpLJlFF+UU/RSx6QQGcuvdnyONm2RRj91UHxqFf5uBANjGCyzMNf8MnI1lS952VH0jqHfaf3qcfihVH+eg9HmcHO7/rwHLh9MbZieAe74dboZ4XEf/7KFBTlTY1F3sbGwJLJO2FVBz/Kp0e0RWVDyYmAaF5akeWFzUG3dCd/gUB13Pg8+D8Xoi6v0028jYuENn15cjtgEjrDLL2sJxwUpbVtjv23sfnl/GuBgTTILgc5N7ZvBj7b4qZEg5SI/hmQpuLVmvniX+erdJuPIBQUMOEgWMFAIN+5g1W/Dwod8+LjY4lKxs83aNHyc6NTzmTxGqXtLadWeMEzXIlmHs8lHarusMD2/55QMfR1tfReLhiZ7qsitRLqMvhVI1LBw5MQDexgIijNIz/9uh3uYgqE96NZUgAffxZo95tUJ3RL030u0hLYFnXXTOic9yv+zaHQE48F45DWxcm/AtCoVsA6gCaFnq+3ZEsDWDaj0I3vFktVhbyUYWIHUML61efqZIzhQx84Txt3WWOoEqeXoGTWJAr65XrdImLJOX64QGY/pdLPREWpgM3pgQla9MkZ7B1o42sSEQIMqsIdj7k6nx7wWPndlYWopSVpOIvj9M4cTv8eCYVw/gnlDuOHXM796SE9xlIlsmfXTw9Zf0qc2l1+E9A3RDA2BKW0aNhKpIUKbI30y0rh/N5Y/HpS2Tr9yzMpSSH72/RiUtE2J+IUQNlilEUjFmgBHAvXHZ1uJKv6uOJMYxxereOVwFOGoDW9OKXO8+kwzW5LdY/78Ism1u06x7kfs9BDxOS7iulpAncswFhvE/hDV7bilEvb9LvyaK1e+ilMhZsJO40MXcdor+tErCdP/KTMs0eBN1yySOfRM+LXV0afGZr6ysv67R6PDPn3lCKe4Cr+EPqLKIcfG2G1pFSkkQluMwgKFgTsPrZfewSdHgxuG9HUj6KvhO+tR2Ro+f9AcnJo80mxNhroVkRKkLN2MksB2bI2aqLfw5kn88gEzUOCa6eNF/dNNPL4RCCKGGI2afukkj5l2qGCzoIBn3/F4SZbayFhax6Mpp3vVBDzmlIa6GeAPz3oLSlN/V0D/KJLDzDkpboenybT9KG1XFqbWtrNxRBWoaYlddTx1OHjtpDkVWesrmob2hfURXEKnU6yHIX2adD4MVX0YwKTnytqwGhPA6lf9vnLY4yI5jmRF9RYa3aVWd818cRW+tQE/fxh/fA61bfquXeGGXdGanVixA2Pb9bKnWr95XPzjlmjJ2Ey6LFM1On1/skk0hLahQRt/UvUXjpCulndai0qYtxzPH6KmkmXRWx2GjmHKnpAUHgogPOM9sSdc6soBy8VOMSyCxLD6/HjrvclL6K2r8qtXFKZ2NrZaT9qWcBeRqkeke0UUfYxaQChUGF1AV6rT/rSWBQ85GztWDOgbJZnM5xMsihyKp/eLpWNBohBlR9TigrqxRJ2LBRXcUMF8l6ryqbLJl/XCsllU1nknTLthpiLSxShTMr0uFlSC7tGwaxRdBXym4j1/QjIaFQoof1KEpWewpKgTznS+jPyI3jsTZxRwDcUqFh3DVBlqBUgqioR7mvpn9wbZEvJFkx7DdRytY3EuPHO40765Vj53JWFq6ex0w/uESqTENGOJlmAfMxrjYc9IG338S3vUUtVj5iq51hFX13SIMQCPGSs5ARjRivR9e/Dzh4OFY2pBmQL+yYIacES/q/OuZtlj90zWUbZkei23K2fpXbmiGCT+kKmYPifsK+Prm4PHD8pjLRyaMiMv+zeN+n1FdI1hfkl/7S40GEP1Y/IGbdOOiZtAGCoSbSIVrttGWlnS0SkWElfpklxSjJIOEmPm9aMfteH0isKUyKO5ZR2W1tlzFhbjNYbdYcAlTRjrEJFtJ0NLJNPahEb7lg9GDhK1Htpv8cG48LDnev9DsyzA2WZI3xfywBQ278R/PIxPrUDXEFK/R/L3KnmnTBdVuioSNa+r0uytUK2N1RFKyA7rzDLRvZzrv8FS8+aqSru4rkidrMWrZaYmbqiwzFeqRKHM7mGzff9UI2C+vBWXMCTXtEun5dNLdlTsdiARwj5Y7AQTiV1T8ua1Xg/FOJCvyt4hVmjvLaO3KL+4CUEw/f4VfjTeXHGYdtSNQpCIS50zTt4cEH3JXzFp2Bhme4lLZnaIWYqLEUrOCHXYV7ungsI+/HYbbn/UfG0DPrsKf1/DzVUsWWWWrJBLV4afWy+//RB+9gycHSi/HN5Y1f/3TvSW5SKncVMpWlTGTVUsKrwzWJoZcLGogu8/oqb92WREG4o6veA/rxtiF62dXOgWpbwOE2kh1KkJ4Od3Y6GD7lGPOdkVZIb///au/UmK6zr/Q6nKL0oUHrszO+/ZBywCS5EsKbYrieMkUiI/IrvKipLYiROpZAV2d2b6NTO7y0NCgC3Z6AHIAmEkgbAAgwQIJJAAAfucnUd331ef1Hd7EQRWVRDtRp7dnqKW2dmu2z2nT5977znf+T4WHxZA7ZRp2/vS1SDkW4Zs4w/aw01RtsKeI8xco5kUED+N4uSB4iEoD5Hxy+StwrVrADSqYLpYRkBIU0MGrse9uicmmzQ2Q5em6NIEXZkKJuuy5Qk0sCHm+ZOeeuGkfHBLMzaE2m+qFGQKlHyW5y2WHIVa1T+/0vpkmoWPFlDXIYwAi5D/HeJDd9KNdehP0JBidB3qx7KhWsWD0/kCZQcoWWVZU+bAEO+vdGppU/1oJ401hE53tbFT3nrp7eGmvvKl8rF3CCs/KGbVJWtR4KNdQSNaUEfSu/lbv+RtfjJbY1JCAHGIuN0Mt1+zGGGF0i0xQT485hrGCjAuwZQExr7R4vs+9J7cLddtpUQVRQpswG36qx3KPKZO1TDDC8lUIBTKC7OLnbnmfI2G1rhl4NqBuvUIaB167TSts+sdVpB2KF/SegzhKtnw147w/WfwqAIoubhe7eGmiJ2ME2+AyV3RWIuuTNEUx4pVogGzSQip6vapTOe8iWFnoC5hMo1Xr2GPdW1a1jVV7Pp0LBeSpJz1VMzFeFI4Fwx/HWupwxfdX3+oRo+rF87Q7k/o5FXuMx4owPcVvPIaOD4kP/sCpwo0Khd4BlUn2ZSKDl+gv9sqUyWK2ZPxKnUPUsbEzqx/EFJ3Gw6oBqiKw9zbnF+xXT9sDzcFjNpFjf6yoI2/lz98sfnISO2JXzd2nqUamKkUMY+CwEUQ/L+/tDCXbi5D7j1cD8LtrrkvckGKPBW4uhoZ0l0g7IEhCMEUhVQk6zkn1iI2SWyKNccp8FQgQZ2IMpgmb4dTg/FaQwm+wEnxvTB5YKqXdRnQ8Ql64lXW41DHAO8bpliBg4bNphVl6i9NPPYCfTwNtIDiaORYZK/2cFMOxJPwJTlvuon148vKtAzJHere8OkLR30XVU3sr75MsQr3VYW7aaxwfVJNki39kQ6g15qmZ3MGOqzChxRYW1FvRX1KE3coj0CDKhU1wmUngADc03UrhDqM8PlqOnwE5rrwQAWS6WY/ydyZiy49vc/rsKZjJdlXpnSJVhV40qa4U++tBH9c8l4/Bw7NIPAxx0ST/lfymIINg7OPPvP67Jk/K0HPPYZEDHqmeyo0coTVvSYptwnYUouFO59At5ohP9AGscUDWbsu4M4mL9DYCVyJbvCeVFR4h/K2yBRltgTlllRFJG1gc3MOSw5eHj2JXKyO/wpl2MhNvxI3xYxK4rnDXmdRJiu0xmBxg1KOn7HcXpPus+XgweC8pxew2Pj76BcGuGpG99B9JZd8ZyflwMiGhQcwjQsQ1+LJDNzxcc913qU+i6fKfrxKaVt2Dzahy1qhnOnlLFq/X37U0CwAsqnCLpY2eDDvzD7tMekT8qVq83HqMChRVj2DXhaxhPU71G2KDlukh+k/dsuPx3XlEQEpYORr+v1QHerOjPIVHI35mnjABBJQOiCiputOeM3yb9WqMq2o+F0myOESVS9fonyRuhyeMfn3XqLTkMEmvUgBSxwLaxVfwXdYwFO2iZtCABp7iHur4ytMylUBo06UQJuYNN1EFfNgr9X8h+fp7U+pBhQ155xcLPk4Ujlt8PKZQvcpvFW2SNaFao0JWr+X+kw/NToDleUS9VhBtkKdJTCtZiv0jS3+gYtAY4FIQzEZgNRN0wDdQfm1DWxD1B5uKiUK35zzkcO1XsvvMPxskeJ6AdBZAmnKKs2Pfpel1lqtbe/zGU/DPgDRCNVR/sDvRRBQI2TiQYZBQsDmEqefv8G7HdWxkSeKQe8AddsyZ8m+IWiH3mW17qvQnjO+j3ocvibQOrNxVIYz/x/4d76jy2sPN8VXwu5YTPhkv+1/za7lLOqrspUbglyV8iblBylvU3KLjJnUXWBP72WnZwAwZUC6z7WPviMj/X8cDL4WZJIUqOCOTNBTb1LeaHaV3ewopQeo25QJW6QtgoJwmdZsmtl4CGFUSQ+Zrc9TpUjK4tdF9mobN3VFE/vXgK4yKh+mPx/20gPUO0KxUj1lAY/cVXR7DCwD4mUsYf/y+dZLJxtXGzzMpeoKU1hk1fl7fV818GQ2EaB3HRJ189lHAu0bWvcI8vFIUQXU4mDlQguSziJgX6cvKfxx7RRhTAPRyZy+os8wew36CE3SKwKhkPP0FX9/jJ54haeLzaSjCYELlCk2006QroALNl6mnEnVdyDDjuvDd+B6v6j7t7TU02Kb8ttl0ocGChhTkPIWil0V9Ivfi7XPUbftZ4wgoW9nGis2kQS1L0vbKm5Qv8P/c7c4cA4Tqp4TdS81QhAqBaHzzZZskP30JeeeZAw5UJwL1fegEUj36gw7dF5tP0rFA/TMPnr2TaoeBEXrqXGvKZAAAiZQV6SgYq3b8EK6qFlnvMlbkQPW8S70a+1lmoLFrzF67QN6ZAvPWiphgpe4qypjZZG3qHuIspaKOdRfFsMH+QzYYtGqd22iv+kci+3X9oimyJtrhjx4mJhBpwWj/Z/6f7uN4pbsLc/cU3S7NQFxzqSsydOO11UGsK2n1PpGtfbs3tZ745CJJOUrT3pI/QCwjIw7GCp1olEqjQCtB6rWQvc0Quhn043h4/Jfd7kPV72eImB74BGqyKRR66uqhzfLp/eJY+OhOqoXcN3DR57UzIM6Ss85/XINGgAgj1SDC4alqJAXfN96p/FgFXi/VAkamUlAsFnWoU6oaKiYRfdYQfU9dlFNwj9DTTLM8osu/3TLU9YebgqCNFKtcB4NPBJ18pvk0qmW94Pd8J4+ZzpbaKQqlDJ4xgSkLQXmVKBCO8rNlc70QyOs9BuQyvIQAKg7W8Iyvc41siZYp33mBi46UdCW/OHl1k/2iPRGsFDFyzxV4TmH9Zj+apOvcqjDoWUbgStdPTC5+T02GZaT4DAueqmRFgrj6s0mDxlKNYGwcvG8uMTGPpikxzaxnIXw2WlMZPRGPuHw5BB1F/BsLC/ztaP+lsM0gbV2kzWb4NaTGj21+L20TXb6mm4TWOhmCE1S6HZD9dwVM77YcIjiNqU2Y9GWrlDSCJIFYOnzBqUtlbJUvkLLq+6f2tRfpYE36MOrM54aY1hkQgvB/XwPAjbPsKeUnR9jjz3HllmU3SBzBZG3gqyNFFh8SGtxG5S3vP6y2+/ok1bpX/aqSy55QZ0zaKVrAAgm5pudNEQ7AdTNJWqxdKVJ24+6q0fr/QYl1lNnlWJbgKHuHuIJixLDlB+BkNBqk7afcN2ggZWPBn9zagjgtJbEq02iKWcUYC+s5UjgTJr/WccsRcxv7jkTfGsrrbBmMqE2TUX02G5PodVtIAOQ0Xy/SZtixUbaaNy3iX66n371sfhoyg+8BrEmsaDFQHiuGz79y5PqyZeD5WAGpuyITNgBKIO0PEiyjEJlyuI5Ezl2/LNE2ubrys3qETGmyTE1oNAPAi+k/bnJjyA1yhkxOd2kV8/Qoy9Th0nLLIpVW9lK0G0SVBO0Kn3SonSp0VnyH9jEdp9CjxjIMcJVNtYraOZC2P+CvdpN523rX9vETUNEEWrVGhusSNNBYNLmgSbfDcQHY+znB2htRXSZPO6g4bhbi5AkoJwUpE2ed4KcQ10G3KKrQP0mPbKDBt+iXWeDs1O8LnxskDmr+YF5mJIlVGXThkhZMmnIFKJyEDeCTkN1mUB5JiyKORJEUY4+USH4+qj7209AbKqg0obN3pwOxEQw5aoD59VTr9O9w2CbipkyX6Z0WWZsnitQn85XdCH9xLMF9d1f0ltX0KOHobHs0atmpXtWUfW4A+Ki9vXUNnFTXfGGj4Y7aqSmcHv0VhrvZ5F3PNh1VnzvZa/LVtg/adGthEMJm1IOT1k8bQKgmbGox1S5EnWUqMOi3mH6+23+M6+zHcfU/ku042P65lbRVWD5MnUO+SuGCZkEk/Im/5tR+YNt9MiL6v5h1mHK9Ah1mV5uCDWhlVUsNh7fSS5QTWACh+yiQsJIZ6BmfwTELrS8p/aItVVKFEXKgUjGOrOWM2TOoqypMpZuacJFtu4pN57ZJ09NElr0CMxsGqalk6Szkz0C7FJ4tYmb3t6tCDR176U6bTvKH9zoLTeRCe8xRG+JZy2K2dSpWSlzNioCqaLoKsiMg9Irftq0xph+cFPz/k2tfKmRLqqc1gBKFCg9SA8Pi5GjdOQKfdygM57/mwv0w70yU8Sm7Z4qpml0SFuQojx5qQHQ6zW6CtDvEQDRYSdXjfHHd00lizxlUd5SKZuWlwAiASRvoJnQn6wqyXxpZs1GNXyMztfDbH0YmQGkuT1LLLajFpWbIjGvfGpNBkx+VEchp9eaTBRQWU0WKWmJRFkkTNVVpJSj0lXkrVKGlyyxRIkSWkWyoyQ7Sl6mrEUWEXr56gI9UKGtR5pMTuhODyJRo8A9J9VPX2nFLIAJ0+v5qgqlTYoNysr+MbSmhLEe/3tIfjEwu7gkD50P7i7JhAWSkozZ6i5Rukx/spHiJUqNwMuzRv3u/649tl0dvhKAYQep0SDgKC7oZejiy9zf1hO12NxUcBYyPEGqVIl3r9BP9gVf2yxzpUZ6iOcNbMxzjoqZPGarXEWDOA2WMlDviduUGabMCBJAaQchNmWxRNn9p9dmLmB5UWM+B3J6hsh1KRAnPqO1w97KYcpb9ZzpZkvUMUD/+MtafXZJAnCeAFUFWriUak2Ru/2Q6CrSakemrUZXRa0xaF1RrTQakB61aYXl9pXZ6O9oCv1MWnrFrxHzZBibcUPnrmzd1q1u54MWm5uiKwOLOKaz58gJNERw+AqV3mLf3sp6yqjuJAxwQ8ALDUqVVBZSytovi6rHkuAExs6JMmWsGZabNPo74evWVq1+1gQdFfJKUkj/8Z3NZQXqqVLCxDMQL9CaLRIlIiwaIZ4kAeTXNC6BXye+6wTwTXmbEmUJstUSrSpRrMJTptc32vzRa+rAJ0g4ACStpW4Uyre+5oPXpasl6qXtkje9/UiAOienAPKXwEmjMiqkpAYXpye9HSe8H7+q7t1I+ZLMDrkZQ2UcOCggHZbssylf8jOlVs7SC1MbM3Jn0X39DIerCFA1CjUegClFQS6OGv+1n+5+Vqtbza53KbGZGg3Mz5BgQfTjwJGiVITLOlej+5/34gWUHlJlyjrIxXaVW995hX5xwp+uQ2XFwwYM+EP0iOIrCEhVKV0rXhobplvv9mKLpnpRiKkR223kFNHfD6/RfcFc0pUWvXfRtd8LHtkZ9FRaHYbo0PG1xwiAB3AoW9axFkVXLAliJtmHm6jyc94IM+stqFCQknWix16iuOnm7MmEgyJt1pCJ7cQaLnHkN8MchM4dhQoC4GU5Ms6+vZGlihTHc9L86xfk1vfp0qRb12tPzQ/AdYsVR1FD40lwOi2EvVSD6eKLptefRI1bup6wuR6IgkD5Qk17IHzcckh+fztbUwZFWWaD+KP11L+JegxaDnozL2dQdgM9+Vr9LHNdOdVqgc0U7R8NYlLtv+KtrX620kJCarUNpPZdBf7oTiBAXYAQoC50/XJm36GEerFGe0+xHe9O7T3tXpzRiwMdevUlht0m4dHXr/mWcZbWB4sumt7e7dO9RkyCoAL9n2cbtPvD5rP7PntiD6U2eImhqXwFwKtuB+XK3oGx6ts0gRLlOMkJ8hqcZo7X6cc7/VVFWlVBMTNt8kyZVg6p4ltazQr9zXPXSsNqqq8pokItVc5at3fVS/eopeqmYb0AslOuzgm0iLxxktOKBg5S2pjptnisROkidW7iiRI9YNDAXnrzEr0/RaemaOe5+vd/xbNDlC9QvuChRjUMMMpas3H8qi7lciSQ5g6Guvs5CJv0Q7G/pZoNvf3Hbqm6qdIlHd1D5AnhKtDfQV9BXTo9Lr65hVaalLKRBIgNoesoaam0SWs30tdfoIe2NdY5Im9QwqT0CMuONrK2jBeg6PdvuybAo4odPrbqc5JbaJZVjcoCizULcS+3f8OW5pFL1E01iJmrgCnsv7EzgVshz6lUyx85RklI/8iULXsNShR4qswSDiZ3gEFNCY01nVfqrNDdls7FDtBDm9Q7Vz0mlA9PFBz6wHO8QpiogFQkxFTCX+c4LvroBgssVTfVuSIsH3XKByhoH7A4pgV4Pprh/75LrDFV0pEpA3jWvE152++1mv2mnx/kHaafsf3VwxTbgKRSxqR1TmPbUe5z0dAMQUGgC6Q3GPrztyFWRNc9Mf2Hzfmf/zV6M6cFlqibIj+lmBK+jmdK6z4gXamoNUWcs8blKfrODnCEZyqg1e0YBLSqy0EJPlkG+jNpUazA1tl0jyHixemfnaA6c6keFt8nlNQF0jnD6axOtPKlAJ8QrmTO4+a8X0v0w6XqpnPdbg7yMa3YJEHK/Mk0je660ldhacNLWkGmrNWpC2K1KbotvrwIVFTaoW850786JuqRp81l0vn6LHLT65YUSkFyGl3IPlMgTZmU9OIF+tkb7C9GvVVlVPw7qrTC4VmLPbCZP7qtUXrTPzmG+pRmN7s+VPRufi0QuekN9gxIMmjtaq0TV5LHJagga03xwWW1+7QaPczNg8o5QptP0J5z7pnpZkuiTQ8JpbmTTzcMHr39EhaI3PQG4+lWAC1zopFIQDcLF3FS+OgZFGgZdSloal1IKYVkWlES2oxY2EavBbNA5KY3mtZHciqsVoZJAMA70dKkNE6pBWpqAVQJuNWBAmUkJAgfdYLrxpGi9/NqgchNr5vTFx5jEpgR1Dm1LjSctgVucamxI1C9cUnWmvwqQFNaQQVhFInSJQpYvm6+hXwXuel1684W4fEfWAG4aiFDNdt4JwJo5qGXNVTIA64eAiaY62epU66PFL2bZwtEbjrPBo2GWwgLRG66EFaNxpxnC0RuOs8GjYZbCAtEbroQVo3GnGcLRG46zwaNhlsIC0RuuhBWjcacZwtEbjrPBo2GWwgLRG66EFaNxpxnC0RuOs8GjYZbCAtEbroQVo3GnGcLRG46zwaNhlsIC0RuuhBWjcacZwtEbjrPBo2GWwgLRG66EFaNxpxnC0RuOs8GjYZbCAtEbroQVo3GnGcLRG46zwaNhlsIC/wPT0frqNRV9nUAAAAASUVORK5CYII=;" vertex="1" parent="1">
          <mxGeometry x="720" y="230" width="106" height="89.58" as="geometry" />
        </mxCell>
        <mxCell id="vTbGQ8BUd189eSrZLIuS-13" value="" style="shape=image;verticalLabelPosition=bottom;labelBackgroundColor=default;verticalAlign=top;aspect=fixed;imageAspect=0;image=data:image/png,iVBORw0KGgoAAAANSUhEUgAAASAAAAEqCAIAAAA6ehqxAAAgAElEQVR4Aex9d0BTSRdvEkrovZfQkY6AiAiCgNhwQQUpouJiBxUVUREVQVRU1LWCqyguCipFlGJBwYaI9CK9914CJKEkPJ/3bR4f9yZAgBDczD+ZO7nTzjm/OzNnzpyBjdADnQJ0CswYBWAzVjK9YDoF6BQYoQOMLgR0CswgBegAm0Hi0oumU4AOMLoM0CkwgxSgA2wGiUsvmk4BOsDoMkCnwAxSgA6wGSQuvWg6BegAo8sAnQIzSAE6wGaQuPSi6RSgA4wuA3QKzCAF6ACbQeLSi6ZTgA4wugxAU6Cnp6empqagoCA7Oztzjofc3NyKioru7u7BwUHo3s5YKh1gM0baOV5wZmbmzZs3t23btn79+tVzPDg4OPj5+X3//r2zs5PKbKEDjMoEnwPVdXd3v3///tChQwsXLpSVlRUXFxeZ4wGFQs2fP9/KyiomJqalpYWaPKADjJrUngN1EQiEyspKDw8PNTU12G8U4HA4IyPj/v37P336RE020AFGTWrPgboGBwfT0tLU1dWRSORvhK//2xU4HK6lpXXx4kVqsoEOMGpSew7U1dvbm5iYKCMjg0AgfjOAwWAwPj6+Xbt2dXd3Dw0NUYcZdIBRh85zphYAYFJSUnA4/PcDGAKBWLNmTXZ2dk9PD3VYQgcYdeg8Z2rB4/Hp6eny8vK/5QgGg8H09PTu3r1bW1tLHZbQAUYdOs+ZWggEQl5enqGhIRcX1+83gsFgMBkZGWdn59zcXOqw5PcHGB6Pr62tLSgoyAGFHz9+NDc3YzAYMK2Hhoa6urrKy8tBmXLy8/OLiop6e3vBuUZGRgYHBysrK/Pz88EZi4qK2tracDgcOOPAwEBHR0dpaSk4V35+fllZGWQjR0ZGMBhMWVkZZHWlpaUdHR0DAwPg6sinFBcXW1tbi4mJgQHGxMTEw8MjLy+vQdtBWVlZTEyMjY0N3AVubm4tLa13795RZ9P59wfY4OBgRESEn5/fcVA4d+5cUlJSY2MjWOB6e3tzc3Pv3r0LynTc29v78uXL5eXl4FwjIyPd3d0PHz709fUFZ7x8+XJKSkprays4Y2dnZ0ZGxs2bN8G5fHx8AgMDIRs5MjLS2NgYGBjo4+MDznjz5s2MjAwKtlYrKytdXFwUFRXB0snJyamqqrpz504/2g4eHh6WlpaSkpLgLsBgMDY2tkePHlFAGTDjxk35/QGGxWI9PDwWLFggDwp6eno3b94sLCwEk6mtrS02Nnbjxo2gTPLq6upmZmZfv34F5wIkfvv27dra2uCMZmZmISEhFRUV4Iz19fURERGWlpbgXJqamjY2NpCNHBkZKSwstLGx0dTUBGe0tLSMiIior68HV0c+pa6u7vTp01paWmDp5OLi0tTUDAkJKaPtkJWVFRERsXTpUnAXYDAYEok8efJkVlYWeTpMy7+/P8D6+/u3bNnCz88PprWwsLCvr292djaYlE1NTWFhYcbGxuBc7Ozs8vLy7969A+caGRmpra21sLDg4eEBZ1RQUPjrr7+KiorAGauqqu7fv6+trQ3OxcnJqaenl5OTA841MjKSk5Ojp6fHyckJzqitrX3//v2qqirIjGQSm5ubAwMDlyxZAi6TjY1NVlb25cuXZLLTwl9YLLa+vt7JyQlylsjExGRtbR0REUGFptIBRgfYWDHr6OiIjo5etWoVGGAMDAzs7OxPnz4lEAhjs03gmUAgDA0N4XA4LFXCkSNHxMTEwPsNCARCRUXl7Nmz09UKHA43ODgISRM6wOgAG4sMNBqdkpKyYcMGMMDgcDgDA8O9e/dI6XjGlvW/z2g0uqKi4t27d6+oElxdXVVVVcH7DXA4nJ2dfe3atS9evIiPj596W5KTk3NyciD31ugAowPsf0EwMoLFYisqKv78808wwICUS5cu1dXVjc1G9hmLxRYVFT1+/PjYsWNbtmzZSJVgYGAgLi4OHsGAXsjKytra2jo4OEy9LVu3bt2/f//du3czMjKGhoZGD2V0gNEBNhYZw8PDvb29+/btA3/7AdE8fvz4pPaR8Hh8Y2PjzZs3jY2NGRgYSOF2TqcjEAhVVVVvb++2trbRWyN0gNEBNhZgBAJheHjY09OTg4MD8vO/e/fu5OTksdlIP6PR6M+fPxsZGfHw8EAWOKehRWw8Gxububl5aGhoQ0MDkRi/P8AwGMzBgwc1NDQkQUFbW/vatWs/fvwgkoMYaW1tffHiha2tLSiT5Lx584yMjL58+UJ8eXSkoaFh69atampq4IxGRkbBwcGQG2h1dXXPnj1btWoVOJeysrKVlRVkI0dGRn78+GFlZaWsrAzOuGrVqmfPnk12Lkfsi7+/PwqFYmRkJAoQMWJnZxcdHU18c9xIUVHRX3/9RWa2Rix5rkeUlJQOHDgwWlH8+wNsYGAgKCho165djqDg4uISExNTU1MDFpHu7u7U1FQ/Pz9QJkdnZ2d3d/eCggJwrpGRkfb29kuXLu3YsQOc0d3d/c2bN5Bbxm1tbR8/fvTy8gLn2r59u7e3N2QjR0ZGfqZ7e3tv374dnNHLy+vjx49tbW2Q7Rw3MSgoaMGCBczMzGChX758+b1798YtgfhCXFycnZ0dNzc3uKjfLEVCQsLa2nr0xs/vDzACgdDS0lJVVVUOCtXV1Z2dnaNnzESZANYhDQ0NoEzllZWVtbW1pGyXhoaGmpqaIKurra0l5RZiaGgIjUbX1dVBVldfXw/ZyJGRkYGBgfr6+srKSnDGuro6NBpN8bmMR48emZubs7CwgDGgra3t7+9PpBX5yPDw8I0bN+Tk5CCxCi58TqfIyclt37599Mf39wcYefbT/yVFgbi4uE2bNrGzs4MlXlZW9ujRo6Qyjk7H4XClpaVubm7s7OykVCbg8uduiq6u7vXr10dPN+gAGy0P9Pj/p0BKSoq7uzukTT0/P/+uXbvwePxoffT/zzkq1t3d/ezZszVr1kBiBjjGzzynApnPBCMjo5WV1bdv37q7u4k0oAOMSAp65H8okJub6+fnB2nzxcDAsGHDBiwWi8fj/ycP6KGxsfHQoUMqKipggAF71ry8vOJzKkAO6YA/AkFBwQMHDvT39w8PDxMpQQcYkRT0yP9QoLq6OigoCNKGEwaDWVhY1NTUkFqIAgVhsdicnBxzc3NIlHJxcenq6h46dChwjoQrV64cPXpUQ0MD/LGAwWAIBGLJkiVBQUH/Q8QR+hWyY+hBf/yXAp2dnVFRUUJCQpDyZGpqmpqa2tHR8e/rEL+NjY2RkZHy8vKQJaBQqEOHDqWnp0PkpMmk1tbWmJgYMzMzyO4wMTHt3bv3w4cPY9pOH8HGEIT++P8oMDQ0lJycDGksC4PB9PX1o6OjR++oggmXkpJy4MABERERSInU0NCIioqi4DQNuCLqpBQXF7u5uc2bNw/cHTgczsrKeu/ePfBhPzrAqMOduVcLgUBIS0ubP38+5KpDS0vr1q1blZWVpDqGx+PDwsL09fU5ODjAEsnDw2NpaVlUVNTf30+qBJpKHxwc/Pz586JFiyCnu7y8vAsXLnz79i14N+X3Bxgejy8qKkpJSfkACl+/fq2urqbMMJym2D9DjcnNzV25ciXkLFFZWfnkyZOkjoEODw+3t7efPXuWl5cX0hZERUXl6NGjkObnM9SXKRbb0tISGhoqICAAaeqloKDg5uaWn58PruX3BxgGg3F1dVVQUBAABWVl5YCAAEi6gCn1H0wpLCzcunWrjIwMeAiSkZHZtm0bqUPBGAzmw4cPTk5OpJTa69ati4iIIK8joSmCf/ny5dChQ5CjMQwGW7JkycuXL5ubm8Ft/v0BRtmJZjCl/oMp5eXlR48eVVVVBQNMRERk1apVpPwmdHV1BQQELF68GJwRgUAwMzMfO3astLSUYisT6vPi7t27BgYGkMYoXFxcmzdvrqurw2Kx4IbRAQZtTQ+m1H8wpba29urVqwsXLgTjhIuLS11d/f3792CyDA0N1dTUODo6iouLgzOysLDIysreu3cPh8ONu08NLpz6KYB/MQ8PD35+fsgBWUVFxcfHh1TD6ACjA4yUbIw0NzeHhYWZmJiAcQL4b4uLiwNnRqPR375909bWhhRHQUFBBweHxMREcEbaTAG6s2HDBsjVFwwGs7W1jYqKItV4OsDoACMlGyNdXV3JycmQhk5wOJyZmTksLAysBvzx40dAQADkyg0Gg8nJyV2/fn30gQ6S1dPGH/X19ZcuXYIcxgFjlDNnzhQXF5NqLB1gdICRko2R/v7+oqIiOzs78AgG2C7cvn17zMqeQCC8evVq3bp1kCYgLCwsixcv/vTpE3V8EpLs2IT/GB4ezsvLW79+PaQb1p97XxISEk+fPu3r6yNVJB1gdICRko2RoaGh7u7ubdu2QQLsp6mun5/fGE398PDw33//LSIiAqkPEBcX37x58xhMkqyeBv7AYrFJSUkoFApyuisqKrpu3bqUlBQyLaUDjA4wkuJBIBAGBwfd3NxYWVnBKxA4HH7w4MHR4jU4OJifn+/u7s7CwgIpkcbGxtevXx9tbE6ybtr4o6Cg4OLFi6S2vzQ1NW/dugV5RJ3Y/N8fYDgczt/ff+3ataagYG1tHRoaSp5AREr9ZyOnTp0SFRUFAwYOhzs5OcXHxxMpg8FgHj16RGrNxsjIuH379q9fv0Kqs4mF0FTk+fPn1tbWkNtfLCwsq1evzs7OJv+9+P0BRrTk+AgKX79+rampoVtykJfpq1evampqgg0y4HD4T1/fjx49Imbv7u4+ePAgpFN7BgYGDg4Of3///v7+OaGdHxkZwePx/v7+4uLi4L7DYDAREREXF5dxD+z8/gAjEAg/nZB1dHS0g0JnZycGg5lD251EUaZm5N69e8bGxkxMTGNWYnA4XF9f/9q1a0BjMBhMcXHxqlWrIL/3XFxcpqamz549G31Wipq9mGxdWCy2pKRk165dLCws4OkxDAYzNTUNDAwc92Px+wNsspSlvz+GApGRkTY2NpBXNv8crE6fPg28X1dX9/TpU3V19TE4BB5FRUWPHTv2/fv3MYXT7GN7e3tYWNjy5cshuwOHw/ft25eSkkIHGM1ycM40LDk52dXVFdL7jbCw8MGDBwEhS01NdXFxkZCQAEskHA6fN29eVFQUpEct2iREVVWVq6sr5HQXgUCwsLAEBgZ2dXWN23j6CDYuif7rL2RkZJw4cQLymhJmZuatW7cODAwMDQ1FRkZqampCzg/5+PhWrVqVn58PefkgDdJ3YGAgIyOD1FkbXl5eAwOD+Pj4iSwu6ACjQf7SVpPKysquXLkCeSoMBoPZ2Ng0NDRUVFRcuHCBi4sLUh+goaHh6enZ1NREWx0j3Zq6urpHjx6RugleTk7u6NGjo50fki6J7jKADG3of/2iQFtbW2hoKOQVZDAYbPXq1d+/f4+MjNy6dSt4cgh4gwHuMZlDp78+ffq0b98+SGMUBAKxaNGiV69eTXC7nD6C0WE0DgVwOFxcXBwvLy+kMs3ExCQ6Ovrw4cN6enpggMHhcBYWFnd397q6OurciTxOZyb2d3BwsJaWFisrK7hHPDw8tra2jY2N4MPLkGXPeYAB1gY9PT3t7e1NTU21tbWVlZWlpaU/b/LOz8/Pzs7O/BXS09O//Qqpqalfv34F4mlpaRkZGZmZmdnZ2fn5+YWFhaWlpZWVlXV1dU1NTR0dHX19fXNILCAZPPVEAoHw4cMHOTk5SD2HlpaWn5+fiYmJsLAwWBxZWFjU1NQCAwMHBgbGVbhNvalTLwFwzOzl5cXDwwN5Ecz8+fN9fHwmvldO0wADrvkYGBjAYDC9vb3d3d0dHR2tra1NTU0NDQ11dXU1NTUVFRUFBQVfvnx5+/ZtTExMeHj4/fv3AwMDb9y44e/v7+Pjc/JX8PT0PPwrHDp0yM3Nzd3d/fDhwx4eHl5eXqdOnfLx8blw4cLVq1dv37794MGD8PDwFy9evHv3Li0traCgoLKysrq6ura2tqGhoampqbW1taOjo7u7u7e3F4PBDAwMzJW9HYrlLy0tbcmSJZBTJhQKZWVlBYkuGAzGy8vr5OT09u1biqumcsa+vr7k5GQHBwfwxwJIsbe3j4mJmfhnl6YBNjAw0NnZWVxc/PXr1/j4+IcPH16+fPn48eOurq5btmxZt26dmZnZokWL5s+fr6ampqKioqSkpKCgICcnJysrKyMjIyUlJSkpKfEriIuLi/0Kor8CEBcTEwP+lZSUlJKSkpaWlpWVlZeXV1BQUFJSUlFRUVdXnz9/vq6u7tKlS//444+NGze6urqePHnyypUrISEhsbGxqampJSUl7e3tw8PDc+ILTZm85uTkbNiwQVJSEix2SCSSj48PvA0NvCkmJnbjxo2SkhLK6qV+rtbW1nPnzpE5nOLj41NdXT2uAQex5TQBMAKBgEaja2trs7OzP3z48PLly9DQ0Fu3bp0/f97T09PFxcXJycnGxmblypWLFy/W0NCQl5eXkJAQEBBgZ2eHVFuB5YDiFDgcjkAgWFlZeXl5xcTEFBQU5s+fb2BgsHz5cmtr661bt7q6uh47duzcuXO3b99+/PhxXFzchw8f8vLy6uvrxzh5JRJ9zkWKior27dsHuSlEhrDs7Oy6urrv378nb61HO9QYGhoqLS21traGHJDZ2NjmzZsXGhqKwWAm/jGdBYARCISBgYHe3t729vaGhobKysri4uKPHz8+evTozJkzLi4ua9eu1dPTQ6FQkJsqZDg6W3/B4XAkEikjI2NgYGBjY7Nnz57z58+Hh4d/+fLlx48fVVVVjY2NxBXdxD9+tCN5FRUV586dmz9//qQoLCUltXnz5oqKCtrpCPmWdHd3f/jwAfJaZ8D40NHR8ePHj+QLGfMvtQEGLKuqqqqSkpLu3Lnj4eFhY2OzaNEiZWVlKSkpUVFRAQEBbm5uNjY2ZmZmsAX3pBhMzZeBE77s7Ow8PDwCAgJiYmLS0tIKCgoGBgb29vbHjx+/f//+58+fGxsbJ74+HsOqWXysr69/8OABpBMbMkQ2NjYOCgpqaWmZxZZPquq8vDx/f3/ImTAMBlNWVr579+5kz15QA2A4HK65uTkzMzMuLu7u3bs+Pj6urq62trYmJiZqamqioqKsrKyQGhsyzJsrf7Gzs4uLi2tqai5btszBwWHfvn1+fn737t2Lj4/Pzc1tbW2d+GRjUrIyvS+3tbW9fv3a3Nx8gmSHw+FMTExOTk5ZWVlgnwLT27ZpLO3FixcWFhaQrkXZ2NiWLVuWmZk52d28GQEYMEz19vY2NTWVl5d/+/YtIiLC29vb3t5eW1ubg4NjphdOE5SDWXlNUFBQW1vbwcHh3Llz0dHRubm55eXlzc3NfX19NKuNRKPRubm5VlZWE6QYAwODiIiIr68vBoOZE1NiAoHQ399/9epVERERSIWNlJTU7t27J2J8OAbwMwIw4HrIb9++3bp1a9u2bYsXL0ahUIKCglxcXMBZV8gtywkyb66/xsDAwMLCwsXFJSgoKCsrq6ent3379sDAwKysLAr4N4adM/Q4MDDQ1tZGRnk9hilsbGyrVq0KDw+fE+MzcFFofn7+z/kFIyMjpHAuW7bszp07ZHxvkKL8dAJscHCwtrb248ePwcHBR44csbOzMzQ0lJWV5eLigmz0GK5M1yMjIyMbGxsvL6+QkJDIryAuLg4o4mVlZQElvrS0tJSUFAqFkpCQEBMTExYWBtZ+wGSVaq1lYGBgZ2eXk5NbsmSJg4ODl5fXgwcPvnz50tTUNPGdFlKsncZ0PB6Pw+F27NgBeWgFzDheXl4vL685dDgFjUY/ePBg5cqV4L4A7n1cXV0zMjIoYMo0AAyPx3d1dVVWVqampt6/f3///v1Llizh5OScRjFlYGBAIpEcHBx8fHzCwsISEhLS0tLy8vJKSkpqamqampo6OjoLFy7U19c3MDAwMTH5abttbW29cePGn1qszZs3b926ddu2bTt37nRxcXH9FXbt2rVz584dO3Y4Ozs7OTk5Ojra2dlZWVmtWLHC2NjYwMBg0aJFCxcu1NHRATbZfupn5eTkZGRkJCQkRERE+Pn5OTk5kUjkNPYRBoMJCwsbGRkdPHjw8ePHaWlpwGlr2pk3Hj58mJR3itFyycTEJCMj8/Tp0wla603jh4CyovB4fFNTk6urK+RNS0xMTD8/vlevXu3p6aFgQJ4GgGEwmJ+6S29vbyMjI3FxcUDyplcByM7OLiEhoaGhYW5uvmnTJjc3N29v7ytXrgQHB0dERLx58yYtLQ1QiDc1NTU3N7e0tLS2trb9G4hHmTv+DcSU9vZ24K3WX6GlpaW5uRm4jDwvL+/79+9JSUnR0dF3794NCAjw9fU9cODA5s2bV69era2tLSYmxsDAMI0YA74jXFxcEhISK1asOH/+fHZ2Nu14NDh37pyysvK4nBUQEFi2bFl2djbtfBrIA29gYKCoqMjQ0BDSExYPD4+ZmVlMTAxli0nKATY0NFReXv78+fOTJ09aW1tramry8fFNRXvBwMDAysoqKSmppaVlbm5uZ2fn4uLy8yTSxYsXAwMD//nnn4iIiPj4+OTk5G/fvmVnZxcWFlZUVNTX17e2tvb09GCx2ImczyFPa+BfPB4/ODiIwWDQaDSwWVdeXv7jx4/c3Ny0tLQPHz68evUqMjLy4cOHt2/f9vf3P3r06I4dO2xsbExNTTU1NcXExEgd7hj9pScTZ2RkFBIS0tHR2bBhw+nTp58/f97Q0EDB/GQinZ34Ozdv3tTX1x8XYJqamidPnqyurp54ybP7ZnV1dWhoqJKSEuS3EoVCnTp1itQ1F+O2nBKADQwMNDU1AToMe3t7SUnJCU7NR4sUAoFgYmLi5eWVlJRUUlLS1tY2MjKytLTctWuXj4/P33//HRMT8+3bt6qqqu7u7lmXLVJ0JBAInZ2dJSUlnz59ioyMvH379qlTp7Zv325paWloaKilpTVv3jwJCQleXl4KSATM/uXk5Ozt7R88eJCRkdHa2jqLpAA8RpHfUIHD4StXrnz+/Dmw44edC+H9+/c7d+6EvCiQiYlJW1s7Pj6e4unupAFGIBBaWlrCw8NXr14tLi6ORCIRCAQk9EfDCRxnZmbm4+NbsmTJrl27/vrrr9jY2IKCgp6ent7e3v7+fiwWC5yTpX0bP2BPYnBwEIfDYbHY/v7+3t7e1tbWoqKi58+fX7p0aceOHYaGhpD8A5MFnAIM7GJiYlu2bHn58uUsahpfv369bds28pMUBgaGjRs3ZmVllZeX18yRcO3aNQUFBcjDKXx8fFZWVnV1dZTND0cme0dzS0tLcnLy8ePHTU1NSXlvBYsIMYWfn19dXX3t2rVubm6XLl169OhRQkJCampqcXFxY2MjBTpQUgPLrKcPDw/39/c3NDQUFhampqYmJCT8888/Fy9e3Lt3r6Wlpbq6OhsbG/mhgEg04MwiMzOztLT0ypUrvby83r1719vbSzHLKSbO169f3d3dyQMMDofLycmtXbvWxsZmwxwJCxcu5ODggGSHjo6Oj4/PVBx9T2gEI9o3RUdHA55AIDfjRssEEAfMZMXFxTU0NIyMjDZt2uTt7f1z9Pv+/TvFYy7F8jG7GQcGBpqbm1NTU386EvT29t6wYYOxsbGampqYmBgbG9sEpwDMzMzy8vKurq4JCQn19fVUtroqLCz08/ObIOvBwjDnUuBwuJ2dXUJCwlSMUSYEMOB7HBgYuHz5clI7cZDkQyKRKBTK3t7+1q1bmZmZwBJieHgYj8dToPGcXYRMvXYCgYDH44eGhnA4XHd3d0pKyrVr1zZs2CAlJQX5+YQkKRwO5+XlNTIyAjQfU2/VxEtoamoKCgqCVLVBNnVOJwI3p5w4caK1tXUq6tDxATY0NJSXl+fr6/vT0yKkGT+YjmxsbBoaGps2bfL394+Kivr69Wt5eTkt6yomLmTT8iYwI+jo6CgtLU1JSQkPD/f19bW1tZ03b95E1I/AzoyRkdG1a9dKS0uppvbo7+9/+vQppJ96sAzM9RQ2NjZNTc379+9P8aLAcQBGIBB+/Phx9epVDQ0NLi4u8lRjYmISExNbsGCBjY2Nr6/vy5cvKyoqqMb+aRH9WSmkv7+/pKQkKirKy8vL2tpaR0dHWFh4XK0jAoEwNze/detWZWUldS47xuPxr169omDtTV5saPNfQUHBbdu2JSUlTVEkyAEMcHcREBAAecBzDF3gcDg3N7eVlVVwcHB1dTUdVxQwZnh4uLS09O+//16xYoWQkNC4CzNmZmYtLa1nz57V1dVRUB0FWT5+/KitrQ1pbz5GHub6o4yMzP379ysrKymg0ugs5AAGeIdbtWoVLy8vGXoxMTHJyso6ODgEBgZ++vSpurq6v7+f+jqu0b2ao3HAjX5VVdXHjx+B5ZmkpCQZpQICgeDj4zMxMQkPD+/t7aXCshawiFVQUCAjD7/BX9zc3GZmZhkZGVNRbwBCSBJgfX19SUlJ69evh7zKGiAiHA4XERExMjI6fPgwjVgbzFFojWn20NBQRUXFs2fP9u/fb2BgQMZEBjAXdnFxSUlJmaAjsTF1Teqxubk5NjbWwcFBQkJi3AF2LiKNgYGBl5fXxMTk/Pnzra2tkyIO5MskAVZZWXn16lUyK1oEAgGcSvjnn3/m0KlVSCrQZiIej29ubr579+7ixYt5eXnJ2ChpaGh4eXl1dXVRYRAbGRkJDw/fsGEDFxcXOzs72+8V+Pj49PT0/vrrr8bGxmmxvCMJMMAuhtSuIhMTk4iIyOHDh4ENGSp8O2kTAzPaKgKBgMPhqqurExISnJycyEzMuLi4VqxYkZqaSh07j4aGhvT09JcvX4aFhYX8RiE0NDQiIuLjx49VVVVTVB4SBQMCYMBxySNHjkhKSkJOA5iYmNTU1Pbu3fv582fqcJTY3P9gBHC5FRsbu3v3bjk5OVLaRSUlpZs3b1LNQRoejx8YGOju7h59LmGuxzs7O3t7e0ncMrIAACAASURBVKey6wWWTwiA9ff3l5WVWVtbQ86h4XC4kJDQT1dqVVVV1NEOgxv930xJSkratm3bz6P4kHNFERGRjRs3fvjw4b9JHJrtNQTAmpqanjx5YmRkBAkwZmbmbdu2xcfHzxV3CzRL+sk2rL29/f3798uXL4f0sMvGxqagoPD06dPJFkt/f0YpAAEwMk7wWFhYUChUcHBwfX39jDaLXjiYAgQCoamp6cyZMwsWLAB/+xgYGNjY2AIDA+fKHVzgDv6WKRAAKywsJOXGVVBQ0NTUNDU19bekBe13qr+//8uXL46OjmCAASkXLlxoa2ujji6R9slFCy2EAFhOTo6dnR2k+0UFBQVXV9eCggJaaPp/sA3A3R8HDx4kBTAvL6+ysjL6Lj/tyAYEwLKysv744w9RUVEwFxUVFQ8cOPDjxw/a6cB/qiXDw8Pt7e2HDx8GswZI+ekpuaCgYHr1YP8pCk97ZyEAlpmZuXr1asgTuFJSUo6OjllZWfRJyLRzYiIF4nC40tLSPXv2kAKYu7t7bm4uHWATISZ13pkcwDg4OFRUVN68eUPfWaYOe8bU0t3d/eTJEwsLCzrAxlCGZh8nBzDAUsvb25tiJzs0SwjabxgGgykoKNi5cyek+z4AcvQRjNb4ODmAwWAwRkbGJUuWXLt2rb29nX4mhTrsBM4NlZWVPXjwQFlZmYx9PR1g1OHIxGuZNMDgcDg7O/vKlSvDw8ObmpomXhP9TYopMDw83NLScvv2bV1dXQ4ODkj7NfoIRjF5ZzTjpAEGMFJMTMzCwiIoKCg/P5+uFJ5RDvX19ZWUlFy+fHn58uVcXFzkvXfQR7AZ5QUFhVMIMBgMhkQily1bdvny5R8/fnR1dU2LbT8FHfiNswwPD7e1taWlpd28eVNHR2ci7jroAKM1eaAcYHA4nJWVVVFR0d7ePikpqaOjg9b6NqfbA5xujoyM3LJli4iICHDtEynlITGdDjBaYzrlAAOYysrKikKh1q1bd/bs2Tdv3rS0tNA1H1PkMR6Pr62tjYuL8/LysrCwkJGRgTSfJ4JqdIQOsCkSf9qzTxVgAHcRCISKisr27dvDwsK+f/9eW1vb399P3+6cLLfQaHRNTU16evpPdyvAwDVZJ4R0gE2W5jP9/vQADFDfc3BwiImJWVpaXrt2raSkZOoOQ2a68zRVPoFAyMzMvHLlirm5OQqFAnxrk1EYjh64iHE6wGiKp9C+6cmYShEZCRmBw+GMjIyioqJ6enp2dnanTp0KDw/Py8ubimtvWqPX9LZneHgYg8Hk5OSEhYUdP37czs5OV1dXUFBwsgMXkR10gE0vg6Ze2rSNYEQeA5cVIBAIOTk5S0tLHx+fp0+fpqamFhUVNTc39/f3/8ftGPF4PHAvRFFR0ZcvX6Kjo729vQHrahYWltFkpCBOB9jUITG9JcwIwADJAG4AY2FhkZSUXLp06dGjR2NiYiorK//j+2Y4HK6ysvLJkydHjhwxMzPj4eFhZWVlYmKa7GwQEn50gE0vPKZe2uQAJiIiYmJiAtyeCslgyEQkEikgIKCsrGxsbGxra+vm5nblypWoqKiMjIz/gtZxYGCgvr7++/fvUVFRAQEB+/btW79+vaGhoZKSkqCg4MRvVwM+Vba2tjo6OpB0hsFgdIBNHRLTW8LkAKakpHTgwAEvLy9nZ2ctLS0BAQEydnGQQsDMzCwgIKCrq2tnZ+fp6RkUFBQTE5OcnJyenl5cXNzQ0NDT0zN3TfUBX0udnZ21tbWFhYXp6enJycnR0dE3btw4cuQIgA0AVJDEgUyEw+GA039DQ0MXF5cnT55s2rQJ8k06wKYXG9NS2uQApqGh4efnV1paWlZWFhwcvHTpUvJetUnJAfzfAFxGrKur6+Dg4OvrGxUVlZub297ePi19o34hAwMD7e3taWlpjx49OnXqlKOjo46ODi8vL3DnE9BpUjQhlY5AILi5udevXx8WFtbR0dHZ2Xn06FFSL9NHMOoznXyNlACsrKysr6+vsrIyMTHxwoUL69ato+yaZkAdgkQigZuaVVVV9fX1zc3N169f7+Tk5O7u7u/vHxwc/Pz5848fP+bn59fW1gJ3IM2ummRgYKCzs7Oqqio7OzspKen58+fBwcH+/v7u7u5bt261tLQ0MzNbuHChsrIyCoXi4eGheH3FyMiorKy8ZcuWO3fufPz4sba2FofD/bzunQ4w8jJNU/9SCDCgD0NDQyUlJeHh4YcOHVqzZo2amho/Pz/FKmbiVxnwt45CoXR0dFasWGFvb+/i4uLl5XXx4sXAwMDQ0NCoqKi4uLi3b99++vQpNTU1MzMzLy+vsLCwtLS0oqKiurq6rq6usbGxtbW1vb2981fo7u5G/wq9vb19fX1AvKenp6urq6Ojo62traWlpbGxsa6urqamprKysqSk5MePH7m5uenp6SkpKcnJyW/evImNjY2Kinr06NHt27f9/f2PHj26c+dOe3v7FStW6OjooFAoTk5OYi8oiwD3vomIiGhpaf3xxx8nT56Mi4sjrlTxeDwajaYDjKYgRL4xUwIYUDTg4Tk1NdXX19fAwEBISIiRkXHia/fJCiITE5OQkJCiouKiRYv++OOPzZs3u7q6enl5nTt37q+//rp79+4///zz7NmzuLi49+/fp6SkfP8VsrKyCn6FwsJCADwFBQX5+fkZGRlfv3798OHDu3fvYmNjnz17FhYWdvfu3atXr545c+bo0aO7d++2tbVdvny5rq6urKwsPz//1JXpkF0GoMXMzMzJybl69eorV64UFBT09vaO5h8dYKOpMSfi0wCwkZERPB7f2dlZUlLy+fPnkJAQDw+PFStWoFCoiRvRQcocZCICgUAikRwcHLy8vMLCwhISEjIyMj99biorK6upqWlqamppaS1YsEBPT09fX9/Q0HDJr2BsbLz0VzAxMTE1NTUxMQEejYyMDA0NFy9erK+vv3DhwgULFmhra2tqaqqpqSkpKcnLy0tLS4uJiQkKCvLw8LCxsTEzM89Ep9jY2KSkpKysrE6ePBkREZGSklJRUYFGo8ecUaADbE6AanQjpwdgo0tsaWn59u1bSEiIp6envb29iYmJsrKygIAAAwPDtGz1QKJuLiaysbGJioqqq6svW7Zsy5YtJ0+eDA8Pz87OxmAwpMw46QAbLWlzIj79ACN2G4fD1dbWRkVFeXh4mJiYCAsLc3JysrKyMjMzT+om9bkIHsg2IxAIRkZGJBLJxsbGwcGhpKRkaWl56tSp+Pj4mpoaIt3IROgAI0Mc2vxrBgGGx+OxWGxzc3NJScm3b98SEhJu377t7u5uZWWlpqbGx8cHKYW/ayITE5OgoOCiRYvs7e2PHz8eHBz85s2brKyssrKytrY2LBY7Efn4LQEGXAk/PJNhFtXOMwiw0RKDx+OBq65SUlKePHly+fJlDw8PQKltZGT08zr3KWq0aQ2WSCSSj49PRkZGS0vLxMRk/fr127dv9/T0vH37dkxMzPfv3xsbGym4m4Y6AAN87BQXF8fHx9+/fz8wMPDWDIcbMxzu3bsXExOTm5vb09MzWiypEKcSwMA9weFwLS0tX758CQkJOXXq1MaNGw0MDGRlZUVERPj4+Li5uTk4ONjY2JBIJBMTE22u3wC9HxMTEwsLCxsbGycnJw8PDx8fH6DkNDY2dnJy8vX1DQ8PB4zCSK2swMQhlUIdgA0ODjY1Nd2+fdvc3JyPj2+yxjq09rGDwWDc3NwGBga+vr55eXlUthOaNYDh8fjBwcHu7u6mpqbKysofP35kZGR8+vTp+fPnQUFB3t7eO3bssLKyMjAwUFJSEhISYmFhoTUdCQsLi5CQkKqqqrGxsbW19U+Hu6dPnw4KCnrx4sWnT5+ysrIKCwurqqpaWlrQaPTg4ODUJyrUAVhDQ0NAQICZmRkvLy/Fu+Q0BTNGRkZubm5ZWdnz58/n5OSQ+n7NRPqsAQzcGWAu3tXVVVVVlZmZmZiYGBERERwcfPXqVV9f3yNHjri6um7dutXW1tbS0tLc3HzJkiULFixQU1NTUFCQkpISExMTEBDg4eFhZ2cHlOmTBSQDAwMSiWRnZ+fh4RESEgI2AJSUlDQ0NHR1dQ0NDZctW2ZpaWlvb+/s7Ozq6nrkyBFfX9/r16+HhIRER0cnJSVlZWVVVVX19PTMkN8EKgBsaGgoNzd39erVQkJCNAWSqTcGDoevXr364cOHYNmbuRQaAhj5Tg4PD3d0dJSVlX379u3Vq1dPnjwJCgo6f/78kSNH9uzZs2XLFmtr61WrVi1dunThwoXq6ury8vKysrLS0tJSvwLqV5D8NwCPKBQK+FdaWlpGRkZRUVFDQ2PhwoVLly61sLCwtbV1dnbev3+/l5eXv7//7du3Hz169Pr16/T09MrKSsBoi3ybp/1fKgAMg8EkJydLSUlNXaBpsAQxMTF3d/dpmU1MkLlzBmAEAmFoaAiLxfb29nZ1dbW1tTU3N9fX11dXV1dUVJSVlRUXFxcWFhYUFOTl5eXk5GRlZaWnp6empn7+/Pnjx49JSUlv3ryJj4+PjY2Ni4t78+bN27dvExMTk5OTP3/+nJqampGRkZWVlZOTk5eXV1BQUFRUVFJSUl5eXllZWVNTU19f39TU1NbW1tXV1dvbi8PhhoeHpz7lmyCTiK9RAWC9vb2JiYkoFIoG4TH1JjEzM9vZ2dXW1lKgYSJyYVKROQOwSfUKeBnAJA6Hw2Kx/f39aDS6u7u7s7Ozq6sLjUb3/goYDGZgYGBoaIj6aKGgR1QA2MDAwJcvX+Tl5cl7OJ26rM9WCcbGxi9evGhubqaA/hRk+Z0BRgE5aDwLFQA2MjKSm5urpaU1QyaXs4UrYr3KysrHjh0rKiqiDq/pAKMOnaenFuoArLCwcMWKFQICAkSh/J0iVL4GmQ6w6RF96pRCHYCVlZVt3rwZUs/BysoqISGxevVqZ9oOP71NGxkZCQsLgz8NLCwsUlJSz58/H3NSYYY4SAfYDBF2RoqlDsCqq6vd3d1VVVXB0snDw7NgwYLAwMB02g5v3769cuWKrq4uuAswGIyVlfXq1auVlZUzwqT/LZQOsP+lB20/UQdgDQ0Nly5d0tPTA0snFxeXmpraixcvsLQdurq6SktLra2twV2AwWDMzMzbt29/8+YNFbhNBxgViDxtVVAHYG1tbY8ePTIzMwNLJxKJFBQUjIqKonGl6/DwcH9/v7u7u4iICNjegIGBYfHixbdv3542xpAuiA4w0rShvX+oA7Du7u53796tXbsWDDDA/PLhw4c4HI4C8vT29jY2NpaXl5dSJRw7dkxZWRl8QBYOh4uIiLi6uhYXF09LQyoqKmpra9FoNNjclA4wCuRk1rJQB2D9/f15eXmOjo5ggAEpN27caGtro4AKOTk59+7dO3z48H6qhOXLl0tLS4NHMBgMxsDAoKqqumvXrr179069LceOHbty5UpmZiYajR5DFjrAxhCEph+pA7DBwcGWlpZdu3aRAtiZM2dKS0snRamOjo6IiIi9e/caGhqqqKjMo0oQExMj44aIi4tLXl5+Whqipqa2cOHCLVu2PHz4cIyjh8kBTE1Nzdvbu6SkZFLEpb88XRQADDI9PDxIif60+EUkEAgDAwOHDx9mZmaG/PwfPHjw27dvE+8UDofLycnZuHHj72qBBTgg5OTkdHBwyMjIGH3qbHIAU1RUPHDgwI8fPyZOXPqb00iBwcHBmpqaffv2zSjAgAb7+voKCQlBGkw5OTklJCRMvF/19fVhYWGTukmQVAdpOR0Oh2tqavr4+JSXlxOJMzmACQoKmpmZff36lcaVSMTu/WYRNBodHx9PSvs8va6zr127pqKiAnna0tLS8tGjRxOn7efPn/fv38/Pz0/L8JiWtsnIyGzdujU/P59InMkBjIWFBYVCPXz4kGq2ksSG0iNDQ0PV1dUnTpzQ0tIiJQ3TMkUESB0SEmJsbAxpkWhoaHj9+vWJcASwtw4JCVm8eDEbGxupZv826dLS0ps2bcrLyyMSZ3IAg8FgSCTS2dn59evXxCLoEepQoKen59OnT7q6upBCD8joNALsxYsXdnZ27OzsYOlXUVHx9vaeSK8BrYy3tzcHBwdYXQ4uea6nqKqqenp6jtYATRpgCARCRkbG1dU1PT199GJuIuSmv0MZBQgEAhaLjYuLc3R0FBYWJiOp0wiw9+/f7969G1ILJyoq6ubmNpG+9PX1ffjwwdHRkTa9qkw7ns3MzGJjY1tbW4nEmTTAgDapq6t7enp++PBhdFnEQumRaaTA4OBgW1vb27dv9+zZIyoqCrkoIgrKNAIsPT39xIkT3NzcxMKJEXZ2dicnp8HBwXHvUmxtbb148eKiRYuIeYkRBALBzMwsKCgoPUeClJSUpKQkBwcHsQujI3A4nJOT888//6ypqRnthI9CgMFgMHZ2dldX16SkJLrCYxrhNKYoAoHQ0dHx5cuXVatWTURJMI0AKy8vv3HjBin3lVZWVl1dXeO6Hqmurl6/fj2kew8mJiY+Pj5TU9OtcyRs2bLF3t5eTk5uNK6IcQQCoaSkdPbs2TEcpBxgDAwMsrKyNjY2N27cKCkpodoZ7DEd+I0fBwcHMzMzAwICzM3NRUVFJ3JtzTQCrK2t7cmTJ6ROhS1fvjw/P5/8GqGjoyMxMVFbWxuJRBIFkRgRFha2tbUNCQnJnCMhKSnp5s2b+vr6xC6MjjAwMDg4OMTExIwRSMoBBpQuLCxsbGx85syZ+Pj48vJyDAZDH9DGkHiyjwQCAY1GFxcXx8TEeHp6LlmyBIlEkll3jWbzNAIMi8W+efNGTEwMsuolS5a8fv26paWFTO/y8/MvXLggKSk5uoXE+M8bdG/dujVaH0CmKFr4q7q6OiAgYMGCBcQuECMIBIKDg8Pf3x98UHqqAAP2sFlZWZcvXx4UFFRVVYXBYOaKiwtaYNvoNgBK7f7+/oKCgsuXL2tpaUHqGIh8BUemEWAjIyOpqany8vKQI+eCBQvu379fXV09uv2j4wQCITY21tLSkoeHB9xOBAKhr6+fnZ1NnVOPoxtGWZxAIPx0o2RhYSEiIgLuDnB9dlxcHHjOPA0AA0wnBQUF58+fb21tfeHChY8fP3Z1dYEtiynr238nV1NT07t3706fPm1lZaWsrMzNzc3IyAhmJ5mU6QVYZmamoaEhJEJUVVX9/PyKi4shuUMgEDAYzI0bN1AoFCQ+JSQknJ2dm5qaxtzPBFkaLSR2d3fHxMT8dF0KOd2VkJDYsGFDWloaWOszPQADWM7AwMDNza2np7dz587r16/HxcXl5eV1dnZS2VkxLfBjgm0AfK02NTVlZ2e/fPny8uXLf/75p6amJhcXFxkUkflregGWn59vbW0tLi4OrlFOTs7FxYWUl9yBgYEfP364ubmRsmY0Nja+ceNGX1/fBAk166/l5eWdPXuWFF+0tbVv3rwJeUR6OgFGZAOANDMzszNnznz+/LmmpgaNRtOnjkQpAdyGYzCYrq6uhoaG+Ph4Ly+vxYsXk1LZEQk7bmR6AVZSUuLi4qKgoACuV0xMbO3ataRMftFodGho6OrVq8EZYTAYAoHYvXv3t2/f5sqXl0AgRERErF27FnKLn4GBYc2aNQUFBeCzKiMjIzMCMDgczsjIyMfHJycnt2DBAnt7ex8fn8jISEDZ+B/XguDx+O7u7tzc3LCwME9Pzz/++ENXV1dGRoabm5v8HheksI5JnF6AVVVV+fr6Qlpm8fHx6enpffjwgfjVGB1pa2vbu3cvJDIZGRl5eXkDAgI6OzvBE6rRhdBIHDhb4OfnJy0tDWn6LCEhceDAgb6+Psjp7owAbAzXBQUFtbW1169f7+HhcePGjWfPniUnJxcUFLS2tlJ2MJZGSD/BZgAcampqysvLe//+/ePHjy9duuTm5mZpaamurs7BwTHZhdYY8o5+nF6ANTY23r1719DQcHQVQBxwL5WQkAD+XPb19eXk5CxbtgxSQ8PNzW1kZBQVFTUn0DUyMoLBYEpKSpydnUldP2JmZvb333+TEobJAQy4HoGZmRkSymA2jElBIBB8fHwLFy7cunXrpUuXXr9+XVhY2Nzc3N7e3tPT09/fPzAwgMfjwTwj1XoaTAeWVTgcrq+vD3DxXV9fX1RUFBsbe/78eUdHRwBUkOesxpAL/IhAIIArQsF/ASnTC7D29vb4+PiVK1eCq4PD4UxMTJGRkeDPdk1NTVhY2Lx588C5YDCYpKTk8ePHMzIyaJB3kE1qbW198uTJsmXLwN2Bw+EIBOLgwYOpqamQeSc9RRQQEFi4cOHPHQxBQUFwfeOmAFNHTk5OYWFhGRkZNTU1Q0NDW1vbY8eOBQUFvXr1qqCgoLOzE8wzUq2nwfShoaGmpqb09PTIyMirV6+6ubmtW7dOT09PRUVFWlpaSEiInZ2dss8THA7n5uZetmyZsrIyKVJPL8DQaHRGRsb69eshq2NgYLh//35nZ+cYLnz+/Hn37t2ioqKQuVRVVePj4+fQaYyysrLdu3dDTneZmJi4ubmDg4M7OjrGEIH4OLkRTE5OztnZ+fTp04cOHTI3N0ehUKysrJB0nGAiEokUEhJSV1c3MzOzt7ffu3fvqVOnrl69+uDBg8jIyMTExLS0tMLCwpqamvb2dhwORzvziv7+/tbW1urq6oKCgq9fv7569erZs2fBwcFXrlw5fvz4jh071q5da2hoOG/ePH5+fsoQBdAQDoczMzPLycmtWrXK3d09JCTE1taWFHmnF2A4HK6+vn7z5s2Q1SEQiMuXL1dVVRGFCZgMP378WFtbG9Jmj5eX18LCoqioaK4sDTAYzKdPnxYtWgRpk8nHx7d48eLExEQyO1KTA5iGhoafnx9w7cjjx483bdo0f/58YWHhaVxIMDAw8PHxKSsrm5qabtq06ejRo1evXg0NDU1ISMjMzCwuLq6qqqqtrW1oaGhqamptbW1vb+/s7Ozu7gbuc+jv78dgMDgcbnBwcGhoaHh4GP9vIEAFPB4/PDw89CsMDAzgcDgMBvPT41dvb29PTw9wWUR7e/tPHxVNTU319fU1NTWVlZWlpaWpqalxcXEPHz68ePHiwYMHbW1tjYyMFBQUuLi4pgInoigTR3tRUVF1dfUdO3Y8ffq0qakJi8WePHmS+NqYyPQCDLj4d8+ePZA9gsPhx48fz8rKIgIMj8e3tLT4+fmxsrJC2n+oq6sfO3asvb2dmIXGI3V1dQ8ePIC0pYTBYAoKCkeOHBl9+gvcHUoAVlpaisPh2tvbS0tL4+LiTp8+bWJiQmpKMEYCxn0EBIuVlZWLi4ufn19UVBSFQsnKyioqKqqqqi5atGjlypUODg579uzx9PS8cOHCzZs3Hzx48PTp09jY2Hfv3n358iUjI+PHjx/V1dXNzc2dnZ1oNLqvrw9AHQC5oaEh3K9AvAyptbW1sbGReNHmly9fEhMTX7x48eTJk/v371+7du3MmTMeHh67du2ysbExNTXV0tJSVVVVVFSUlZWVlJQErr3l5ORkYWGZrnMZzMzMQkJCFhYWZ8+efffuXUlJSUdHB3ARDNUANjIyQiAQjh07xs/PD140wuHwXbt2vXv3jihVOBzuzZs3mzdvhkQXDAazsbF58eLFHNr+ev/+/Z49e0htfxkYGCQmJpK3F6MEYGVlZQBN8Xh8W1tbVlZWeHj4uXPnduzYYWpqKicnx87OTorE4wKM/AtIJJKHh0dMTExeXl5DQ2PRokXGxsbm5uYWFhbr1q2zs7PbtGnTn3/+uXPnzn379h08eNDDw+PYsWOenp7Hjx/38vI6+W84ceKEl5fX8ePHjx075uHh4e7ufuDAAVdX1507d27dutXR0dHW1nbt2rUWFhbLli0zNDRcsGCBqqqqnJwcMFwjEAiwwJFv+UT+hcPhXFxcCgoKy5cv371794ULFyIjI3Nycnp6eoBJCKBBoSbARkZGzp8/r6CgAB7E4HD4hg0bIiIiiABDo9Hnzp1buHAhuLMIBIKdnf3YsWOVlZVgeyJiCbQTAczWgoKCFixYAGm9wcfH5+jo2NDQMPpwCrj9UwLY6OJ6enoKCgru3r27a9euJUuWzJs3T0xMjIeHB7jNFUxxegpAATgczsLCwsvLKy4uPm/ePFNTUxcXl4cPH+bl5YHXnLMCsMDAQH19ffAeHRwONzU1JWqoh4aGfupL7ezsIA3wWVhYFBUV7969S2a5MlqcZj0+NDTU1tZ2+PBhUmexNTU1z5w5M67Ge9oANjw8jMViOzo66uvr8/PzIyMjT5w4YWFhgUKh/gvOGCj7XgCOcpWUlNavX/9zS/fFixe5ubkNDQ1dXV1YLBbMvFkB2NOnT62srMAmhYATpQsXLgBgaG9vT05OXrRoEeS2noCAwNatW0fPJ2cdQuQbgEajk5OTN2zYQGoutmnTptjYWDCPxhQ7bQAbXe7g4GBjY2NGRsaLFy/u3Lnj7e29Y8eO1atX6+joSEhIsLCwkGo0ZWI6t3Kxs7NLSEjo6upaWVnt2bPH19f33r178fHx2dnZzc3N5NVrswKwhISEP//8E9JKCIVCHTt2DGB9Xl6en58fqfOI0tLSd+7cIS4uRksLbcYbGhrOnj0LeTiFgYGBjY3t/PnzFRUV4zZ+RgA2ptbW1tb09PTQ0NDTp087OTktXbpUS0tLUVERhUIJCQlxcXH9rtNIBAKBRCK5uLiEhIRQKNS8efM0NTWXLVu2devWs2fP/jRvy8nJ6e3tnfi+36wALCUlxd3dHXI/houLa/fu3cO/QkJCwooVKyCPXSORSF1d3dTU1LlyOGVoaKigoMDS0hLyhjE2NjY5ObmIiIiJLCapAbDh4WEcDodGozs6Opqbm2tqaj59+vTw4cPTp087Ojrq6+uLi4tDfiDn1tA0prWA1YWUlJShoaGTk5OPj09oaGhaWlp5eXlLS0tnZ2dvby9guTLme0TmcVYAVlRUxWIu5gAAIABJREFUdOHCBUj3UggEwsHBoedXuHPnDj8/P3ipBoPBpKSkfroFqK6upp1tTDJEHhkZ6ezsfPXqlaKiIli1A4PBxMXFHR0dv3z5Mu78cNKWHMA+2BQHejwe39XVVVVVlZ2d/f79+8jISGB/9uTJk66urg4ODqtWrdLX11dWVgZ8i0N2cow0z+IjcJpVXFxcWVl58eLFFhYWjo6O+/bt8/b2vnbt2oMHD6Kjo5OTk7Ozs6urq8c4LifPZvC/swKwpqam+/fvQxoWwmAwS0vLoqKiz58/Hzp0iImJCVK5amJiEhQURMbcAdzT2U3Jzs729fWFHL5gMJiGhsbdu3cnMj+cHYBB0g6LxTY0NGRmZiYkJISEhFy8eNHDw8PZ2dnKymrp0qV6enra2trq6upKSkpycnIoFEpMTExISIiPj4+Li4udnZ2FhYWJiWm6lnaAjRkzMzMrKysHBwc3Nzc/P7+wsLCEhISUlJS8vLyKioqmpqaOjg6wT2Bpablt27YjR44EBASEhoa+fv06JyenqalpIlMISGqQSpwVgPX19cXExPDy8kKCZ9myZW/evAkICFi1ahX4MweYLG7fvj0zM3OueG3B4/GRkZGrV6+G/KawsLCsWLEiLy8P8nAKmHHUmCKCawWnAKIzODiIxWKJhhSAsWxtbW12dvbbt2/Dw8Nv3rzp6+t76NAhZ2fn9evXm5qa6urqqqiooFAoPj6+6ZpnArM7ISEhWVlZdXV1fX39FStW2NnZ7dmzx8PD49y5c/fu3Xv+/DkwLtXX13d0dHR1dfX09PT29vb39wN2JDMxHZoVgBEIhKSkJFFRUUj1oIGBQXBwsLW1NeSdzgwMDAICAufPn4dUioLFYNZTfm6s43C4CxcuCAkJQfZXSkpq7969vb29E5kf0tAIRoqywH5fb29va2trTU1NSUlJXl5eenr6ly9f3r9/n5CQEBMTExER8fNugYcPHwYHB//99983bty4cuXKpUuX/P39z5496+vre+rUqePHjx/933D8+HFg2/n06dN+fn4XL168cuXKtWvXbt68GRQUFBwcHBoa+uTJk6ioqJcvX75+/To5OTk1NTUjIyM/P7+ioqKhoaG9vb23t5eaGzuzArCRkZGUlJT58+dDftEVFBScnZ2VlZUhF2mcnJwrVqx49uzZBMWRlBhQLR2Lxebl5e3evZvUWewVK1bcu3dv4kdFaWUEm0YKYrFYNBrd2dkJGEDV1dVVVVWVlpYW/m8ALCrLy8urq6sBtABHZnA4HDUxM6mOzxbAMjIyVq5cCbkm4eHhUVVVhcQeDAYTEhI6derUHDqc0tnZGRISsnz5clLT3QMHDmRkZExcQn5DgAEWdETL3n9tfcf5Jb4/KYmn8suzBbD8/HwnJycZGRlIsSNjfiktLR0XFzeH1Bv19fU7duyQlZUF9xQ4i33nzp1J+Sb8PQFGZbmnWnWzBbDS0lJPT09VVVWw2JFJERAQWLVqVU5OzsQnVFSjJGRFfX19aWlphoaGkNNdPj4+MzOz+Pj4Sa2u6QCDJDWNJs4WwGpqam7cuAFpxUsGYPPnzz9x4kR9fT2NUhPUrMrKyvv370MO1DAYTFZW9tSpU6QcaYEK+38JdICRogwtps8WwJqbm6Ojo01MTMjACfzXunXrEhMTybvXpikqJyUlOTs7kzqtr6Ojk5SUNNnDbHSA0RSLx2nMbAGsq6vr69evpNywgaGFQCC4uLgOHTrU2Ng47ZuB49CIor8JBMLg4GBwcLCqqiqkUZigoKCdnV1VVdVkp7t0gFHEkFnKNFsAw2AwVVVVNjY2YCxBpiCRyPnz59++fXtSy5VZIur/rXZoaKiurs7Ly4vUUcYFCxb4+flNcHN5dEfoABtNDVqPzxbA8Hg8Fov9aVEJacwBxhgXF9fOnTvn0OGU/v7+N2/eODg4gPsCpGzatOn169fkzzpASg8dYJBkodHE2QIYUO/+/fu5ubkngjFBQcE7d+6M9odDowT9t1kdHR2nT5/W0dEBA4yBgeHnmUtfX9+GhoaJb3/9W/AkPftOi7EvsW56ZLIUmC2AAe08deqUtLT0uABjZ2fX0tJKTk6eK743BgYGSktL161bB6neYGdn19DQePTo0cRPFY1mK30EG00NWo8DhmNU9slBJMqVK1e0tbXHtaiWkZFxcnIqKSkhZqTxSHt7+7t379TU1MDDFwwGExYWdnZ2JuUkfNyuTQ5gqqqqXl5epC6tGbcy+gtTpAAej+/r6/P09IQUBRgMNr1u28a09uHDhytXrhz39NDSpUtDQkLmkGvRrKysU6dOoVAoSKoqKiqGhIRA3pwyhj6Qj5MDmJSU1KZNm7KzsyHLoifONAVwOFxRUdGuXbsgRWGmARYTE+Pg4EAeYHA4fPXq1dHR0ZmZmUVzJPz999+mpqaQ16BxcHCYmppmZmZSfBZ7cgDj4uLS0tJKTEyc7G7ATEvef6F8AoHQ2dkZFhYGefIKgNyMjmBJSUkuLi6QhziIgGdgYDAxMflrTgUHBwdSdx0C16C1trZSLGCTAxhg7+jj40MfxCimOMUZBwcHS0tLt2zZQmoyM9MjWG5urre3N6RTACLA4HA4Dw+PwpwKwsLCjIyMkMqblStXPnz4kILtLyKXJwcwGAzGyMi4ZMmSy5cv19fXU7AtQKyYHpkUBQgEQkFBwdWrV9XU1CBNDagwgtXV1d24cQPsv42Irt8pAjgs2r9/f15e3lTma5MGGHAjs7m5eXR0dG1t7VTqnpSE/WdfBqx4Wlpabt++raOjA2noTZTsGZ0iotHox48fk7omi9iG3yPCxMQkJiZ2/fr1gYGBqZwWpQRgcDicn59/8eLF9+7dm6IDnP8sbCbe8YGBgbq6unPnzhkZGZHyMkuU6RkF2PDwcGxsLA8PD3k9B7ExczrCw8NjYWERExMzFXRN2mUAkWQ/r67h5ORcvny5n5/fp0+fOjo65orV2cQle9bfxOPxzc3NiYmJ3t7e+vr6kC4HiRwBIjMKsJGRkaSkJDLnl8c0Zk4/SkhI+Pn5TfZwClhmKBnBRhNORUVl79697969q62t7evro8MMTGIKUoaHh9FodHV19YsXL3bu3CksLExetUDkyEwDLD093dbWVkJCgljjbxlBIpHa2tpv376d7OEUMK+nCjAWFhYREZHFixefPHny69evFG8XgFv2n00hEAg9PT3v378/dOiQrq4uPz8/KR0XWLhnGmC1tbUPHz7U09MDV/07pcjLy+/atauyspIy86jRojtVgMFgMGC6qKWl5eTkFBAQ8ObNm5qamjlxCmg0IWghjsFgKisrExISLly44ODgoKKiQl6lAZbpmQZYX19faWnp+fPnV65cKSsrKywszEfDgZeXl2cygZ+fX0JCQk9Pz93d/fXr11PRzhPFaRoARmQzEolUUFD4888/Q0JCMjIyampqgAuXp7hMJLb1d43gcLiOjo6qqqqvX7/+/fffmzdvlpWVpUwbPtMAA1hQWFj4zz//7N6929bW1pKGw5o1aywmE9auXbtly5bz58+npKRMUXlIlNXpBBhwmzA3N7e0tPTSpUs9PT3j4+Pb2trooxmR3JCRqqqqmJgYd3d3AwMDcXFxbm5uUj6oid8yUhHqAAyHw3V3dwN36tbRcKidZKirqwMc+E3KbxQkT4mJ0wkwItcBgw91dXVLS8v9+/dfu3YtNja2oKCgs7OTrgUZGRkZHBzs7OzMy8t78eJFQECAi4vL6tWrVVRUJnjaikhncIQ6ACNKDz0yLgVmBGBExiMQCBYWFnV19Y0bN/r7+z9//jw9Pb2kpKShoaG7u3toaOi/M3scGBjo7u6uq6srLi5OTU2Njo4+d+6cnZ2dvLw8BwcHkWJTjNABNq7EU/mFmQUYDAYD5o3s7Oy8vLzAXT6urq537txJSUnp7u7+78wem5qaPn/+fP369R07dixZskRERISHh4ednX3iGsKJYI8OMCrjZ9zqJgcwDg4OaWlpXl5eyGuhx5UAJiYmXl5eRUVFAwMDKyurbdu2eXl53bx5Myoq6uvXr2VlZR0dHXMdcsCZyPb29uLi4s+fP0dERPw0t/H09Ny+fbulpeWiRYvk5ORI3VQyLgGRSOS8efNERERIvUkH2LgST+UXJgcwcXFxCwuLNWvWGBgYSElJkXLBQ4r94HRRUVFdXd0NGzYcPnz46tWrYWFhiYmJ3759y8nJKSkpqa6ubmpq6u7uxmKxw8PDtDafHB4exmAwXV1dwK2CxcXFOTk5qampb9++ffz4cUBAwIEDB9avX6+joyMgIECZVhCgGOAFTUZGZsmSJQcPHjQ2NgZTEkihA4zK+Bm3uskBTF1d3dvbOyUl5fXr125uboqKilORG2APjZGREYlEsrKysrOzc3Nzy8jILFq0yMbGxsPD46+//nr27FlaWlptbW1/fz+tKUh6e3sB3XpkZOS1a9fc3d03bNiwaNEiQBPIzs7OysqKRCIZGRnHPWZPCjBAOmBY4OHh8f79+8bGxtk60TyuMNFfAFNgcgADnN4UFRU1Nzd///798ePHJ06cWLdunaysLBsbG3kpmci/cDgciUTy8vJKSEgoKyvr6uoaGxuvWbPG1tbWycnJ1dXV09PT39//1q1bDx8+jIqKev369efPn4ErhcrLy+vr69va2ii7nRVwjofBYHp6etra2hoaGioqKgoKCr5//56cnBwfHx8ZGfnPP//cuHHj7NmzR48edXFx2bJli42NzerVq5cuXaqrq6usrCwpKcnLy0uxkn00iYC1q5KSkrW1tY+Pz7NnzzIzM1taWrBY7Gz55ABLDz1lXApQAjDAgp5AIGCx2MLCwvDw8IMHD/7xxx/a2tooFIqTkxPy7Npo6aEgjkAg2NnZxcXF1dTUFi9evHLlyg0bNmzbts3Nze348eM+Pj6XLl26devWvXv3QkJCwsLCgHu94uPjX7169fr167dv3yYmJr77NyQmJr59+/bNmzevXr1KSEiIi4uLjY2Njo5++vRpaGhocHDwrVu3AgICfH19jx496urq6uTkZGNjA9xtq6SkJCIiwsrKOsVxCZIIjIyMHBwcUlJSCxYsWLNmzbFjx549e1ZWVobFYoFbY4aHh+kAG1esaecFygEG9AGPxw8NDWEwmMLCwsePHzs7O6uoqJC5zwZSqiaeCFzuikAgGH4Fxl+B6d/APCogkUg2NjYuLi5+fn4REREJCQkZGRl5eXngrK2MjIykpKSIiIiAgAA3NzcbGxsLCwvyVyCW8W+pTEAtQI2IX2EmviAAETg4OBQVFXft2hUeHl5XV9fX1zd68Tm7bttoR2rnUEumCjCgqwQCobe3t6amJi0tLSYm5ubNm25ubitXrpSXl0cikTMnjuSRCaCRkZGRmZmZhYWFlZWVjY2N/VdgZWVlYWFhZmZmYmKauc8B+eYR/+Xm5lZSUrKwsDh8+HBgYGBcXFx6enptbe3P2eCYZScdYHMIWkBTpwdgo7s9ODjY1taWmpr64MEDT09Pe3t7c3NzXV1deXl5QUHB6bpGmSidcy5CvABaUVFRT09vxYoVW7duPXXq1D///JORkdHW1jaamGPidICNIQjtP04/wEb3eXh4uK+vLzMz88GDB25ubkuXLhUXFwdGDPi/Yc4hhIIG/9vX//vLysoqKSlpZmZ2+PDhsLCwoqKiiVtt0wE2WrrmRHxmAQbsunZ1ddXU1OTl5X3+/Dk2NjYkJMTPz2/nzp0rV67U1NQUFhae9UkaBZiZYBZWVlZRUVEdHZ01a9bs3LnTz88vJCQkISHhy5cv+fn5dXV1aDR64oeO6ACbE6Aa3ciZBdjomoD40NBQd3d3UVFRYmLigwcP/P39Dx06tHnz5nXr1pmbm+vr62toaMjJyYmIiHBxcU1xk22CGJj6awgEgpmZmZubW0xMTP7/tHflcU0cb58AMdxynwHkPgUNWuSoCMolgoocv4qgYgRREStab0UQtILFqyKI/IqItloQpHgVEVGxIgIRuUWucJkEYoAECCEvr/u++VB2g+FsQnf+gMnsPrPPfJ/57szO8Yy2tomJiYWFhYODw9q1azdv3rx3796YmJiUlJQ///yzsrJyMiueYYKBaxSXp8w0wcBwAF6TPn78+PTp0+Tk5IiIiICAgJUrVy5cuFBFRUVERAQYkEChUMD4HhL5v8N6rDE9oPc1eZKwywHIHxi3ZA1aApqgUChg7ASgFgaDcXNz27FjR0RExPXr1/Pz8xsbG6f2AASYYOD6w+Up/zzBgOmd3t5eIpHY3NxcW1v77t27wsLC/Pz8R48epaWlJSQknDlz5vDhwzt37vT19V29erWtre3ixYsNDQ01NDTk5ORERESmaaASiUSKiYnJy8urq6sbGRlZWVnZ29u7u7tv2rQpODh4+Ly26Ojo//73v3fv3s3JyXn+/PmbN2/Kyspqa2vxeDyJRKJSqRM48GaMGgMTbAxwuPMSVxCMHTTAuW9tbW3V1dVv377Ny8v7448/bt26lZiYeOHChR9//PHEiRP79+/ftWtXQECAv7+/r6/vd9995+npuXbt2tWrV7u6urq4uDg7Ozs6Otrb2y8HhRUrVjg4ODg5Oa1cudLNzW3t2rXr1q3z8vJav369n5+fv79/UFDQ7t27Dxw4EBYWdubMmbi4uF9++eX27dv3799/9uzZ27dva2pqPn36BMwCsyvFFKbDBJtCMGcmK64m2LggoFKpRCKxqakJWHRbWFhYUFCQn5//5MmThw8f/vHHHxmgkJmZmZ2d/fjx47y8vNevX5eUlJSXl9fW1jY3NxOJxClvf8ZVHMibYYJBwsLNibOHYAwGY2BggEaj9fb2UiiUz58/k8nkrq4uEolEJBIJBMInqEAgEEgkUmdnJ5lMplAoPT09vb29fX19AwMDI5dQcIkJYYJxiSE4V2P2EIzzMvPunTDBeM52MMF4yWQwwXjJWl90hQnGSyaDCcZL1oIJxnPWggnGcyaDWzBeMhlMMF6y1hddYYLxkslggvGStWCC8Zy1YILxnMngFoyXTAYTjJes9UVXmGC8ZDKYYLxkLZhgPGctmGA8ZzK4BeMlk8EE4yVrfdEVJhgvmQwmGC9ZCyYYz1kLJhjPmWzcLVhERATgeJTnijoLFAZ8nMCOR3nIlOMjmLGx8bFjx6qrq3mohLNJ1aGhob6+vsOHD7NzcAAf/sBt5h4fwaSlpS0sLFJSUpqamritJLNen76+vsbGxri4ODs7u5khGIPBoFKpZDKZyOOht7eXc9ddU1uRIAhWXFy8evVqZWVlsBURCISQkNCGDRuuX79eW1vb3d3NbUcKTS06XJLb4OAgkUh88+bNlStXli1bJisrCzYNkLJ///6KiopR/oDHW4qhoaH+/v76+vrnz5/fvXs3NTX1Fx4Pv//+e25ublVVVXd393jRmOT9EAR79+6dj4+Puro6OysikcjFixdHRERUVVXx+nl5k4RvZsSpVGpubm5QUJCiouLYrsjDw8Obm5snSTA6nU4gEC5cuGBtbS0pKSnC+0FcXHzhwoUHDx4sLy+fGZOxngJBsObm5vj4+CVLlrAjGB8fn5SUlKmpqa+v788//1xcXDzzLwZWAWZxZHBwEI/HZ2dnHz16dNWqVdra2nPmzGHnP0tERERHRyc5Obm3t3eS3YrW1tbY2FgHBwcZGZnpOEFmjHo1TZcQCMTcuXMNDQ1PnTpVXFw8k3UGgmAUCgWHwwUGBqLRaHbmBM7Ok5SUXLp06ZEjR9LT00tKStrb2/v7+ydp3ZksPHc+a2hoiEQiVVdX5+XlxcXFbdq0SU9PT1hYeIzKh0QitbW1d+zY8erVq0kWik6nl5aWOjk5ycnJjfFEXryEQCAcHBySkpImCdG4xCEIBjgqvHv37nfffScgIDA2lMA5cdra2oGBgdnZ2UQicZL9k3FpPytvHhwcfPXqVVRUlI2NjbS09BjvOJZppKSk1qxZU1FR0dvbO0lMuru7Hz9+rKamxsp8NkWUlJRCQ0MnCdG4xKEJxmQyW1pafv/99zVr1kCOdowEnZ+fX0xMTFNT08bGxtfX99SpU9nZ2Q0NDZM39rhKwtM39/X1dXR05ObmXrhwITAw0MnJydjYWE5ODolEjoQaHEcikXJyclgsNjs7m0wmT97P6ewmmJCQ0H/+85+GhgYqlTozFYYtwZhMJh6PHz7+w9vbW11dnZP3KHBWNwaD8fPzO3369K+//pqfn19RUdHe3k6j0eCu4yiL9vX1EYnE6urqFy9eAKc8BwQEWFtby8jIcOiUX0xMTF9f38/PLzMzs6ura0r6DjQaLT8/X0dH56udFzDbeSJl2bJlf/zxR0dHxyhzTNPPsQgGPPLevXt+fn7CwsLjPQNFQ0PDzc0tMjLy4cOHjY2NNBqNTqcPn4DKYDD+nWQbGhpiMBiDg4N0Or2/v7+lpSU/P//s2bMeHh7a2trjqp0IBEJAQEBfX3/79u1T0jMcWb1wOBwGgxn7q29c2nLVzUZGRkeOHKmqqhpZ5OmLf51gbW1tT58+PXXqlIWFhYSEBOdgiYiIKCoqGhgYLFmyxNXVdceOHTExMenp6aWlpSQSaUpet9OHy5TnPDg4SCaTKyoqsrKyYmNjd+3a5e7ubmVlZWRkpKysLCoqyjmwgoKCSkpK3t7e8fHxOByuu7t78j3DkeWtqKhwcnIaY7aNc1W58E55eXl7e/u//vprZJGnL/51gjGZTAqFUllZee7cOW9vb0NDwwkccy4kJIRGoy0sLLy8vPbu3Xvu3LmbN29mZ2cXFBRUVFTg8Xgymdzf3z995ZzhnOl0OoVCwePxFRUVr169evjw4c2bN8+fP3/w4MH169dbW1urqamJiIiMt/4hkUgVFRVbW9vdu3enpaXV19dPR7lqa2s3btw4b948sHpCQkJKSkq2trae3B1cXV0tLCwgB0KFhITU1dUzMjKm9uAbdobgiGCAMI1Ge/Xq1f79+01MTMTExJBI5IQnSVAolLKyspWVFRaLPXPmTHp6elFREXAaXU9PD5VKpdFo/f39QJeSm/uTQK+PTqcPDAz09fVRqdSenh4KhdLa2orD4dLT06OjowMCAuzs7FRVVSf8VYNAIAQFBYWEhBQVFd3d3VNTU4lE4tS2WiPrx/AYwA8//GBsbAwmmIyMjI2NzW+//dbI3eHt27fx8fEWFhbgIvDx8QkLC58/f36aXk8jkWQymeMgGIPBIJPJVVVVmZmZR48etbW1nfBEJD8/PwqFkpSURKPRurq6CxYssLCwcHJy2rBhw759+4AzgR48eFBUVFRfXz/lXaBREEz45+DgII1Ga25uLi0tzcnJuXHjRmxs7KFDhzZv3uzi4mJpablgwQI9PT00Gi0tLS0kJMTJQBFkhUChUBgMJigoKDk5+fXr162trQMDA9P33mlpaYmJiTE3NwcrIy4ubmhomJGRQePu0NnZWVVV5eHhAdkGzJkzB4vFPnr0aMKm51xwHAQDMh0aGurq6ioqKkpMTAwODnZ0dNTT0xMXF5/w65llRRQKJSsrq6+vb2Fh4ezsvGHDhuDg4CNHjsTExFy5ciUlJSUtLe3+/ftPnz4tKCgoLi6uqKioq6vD4/EdHR1dXV29vb1TtW6LwWD09/dTKBQikdja2trU1FRbW1tWVlZYWPjs2bNHjx5lZmbeunXr6tWrsbGxx48f371796ZNm1xdXa2trY2NjRUVFSc/QsDPzy8kJKSjo2NnZ7d58+affvrpyZMnbW1tU1XGMaoIgUC4cePGihUrWKZhRVAolLy8fFpa2vTRewzFOL8ELFP+/vvv5eXlwe81AQEBS0vLy5cvc57hhO8cN8FYTxocHGxpacnIyAgODjYzM1NUVBQTE5szZw7kO4NloYlFREVFVVVVFy1a5OTk5OPjs3379iNHjvz000/Xrl27c+fOw4cPX7x4gcPh6urq2tra2tvbOzo6gKNUCATCqIXgpC9hZCLhS/j06VPHl9De3t7c3FxTU1NUVJSTk5ORkXHr1q0rV66cOnUqNDSURSRdXV0pKamJFWcMKaBtB079MzAw2LZt26+//trQ0NDX18dCfrojZDI5Nzd37dq1YD2BzmpKSsoEeA7staFQKJ2dnYAVpvtvRESEiYkJuEIiEAhZWdmQkBAikTglOnR+OZ2nr68PPHQ3cYIBeBEIhOrq6vz8/Li4OCwWa2ZmJiMjAzbMJFMEBARQKJS4uLi0tLSCgoKKisq8efO0tbX19fWNjY1NTU0xGMzixYuXLFliZWVla2vr5OS0evVqDw+P9evXb/4StmzZEvAlbNu2bceOHYGBgQEBAVu3bvX399+4caOPj4+Hh4ebm5ujo6ONjY2VlZW5ufmiRYsWLFgwf/58IyMjPT09TU1NVVVVRUVFWVnZuXPnioiICAoKTrJcYHEZGRlzc/OAgIDLly/n5+dXVlZ2dHTQaDSw5aaPZlQqdbh34OvrC1aPj48PgUBcvHiRQCCMSwFghX5hYeHly5f37t0bHBy8Y/qDnZ0du+V+SCRy/vz5AQEB27dvn7wie/fujYqKKigoIJFIo2CZOMFYGQFM+/jx4+PHj+Pi4g4cOAAMlGloaIiJiYHfH5Bmm8JEQUFBYWFhCQkJaWlpeXl59Jegqqqq/iVoaGhoamrOmzdPXV1dTU0NjUYrKysrKChIS0tLSEhMYLpvMpojEAh+fn4ZGRl9fX1bW1sfH5+DBw8mJCTk5OTU1dVN64cWy3zgCLCaPigoCNy5AgobHh4+3k23XV1dWVlZe/futbOzMzAw0NbW1pr+APSq2BlITExMXV1dU1Nz8ooYGBh88803gYGBv/76a1dX18i9Z1NAsFEW6uzsLCkpuXz5sr+//5IlS+bNm6egoADsehAUFGRnM3YozL50fn7+OXPmiImJSUtLKykpaWpq2tvbh4SEJCUlvXv3jkKhjMJz5n+gny08AAAUzElEQVQCnj/27dvHbvF+SEjIuFYVDwwMvH//3tPTU0VFZfYZlFUiFAo13A8qLi7+/Pkzy2pTTzA6nd7T09PW1vbhw4eioqKsrKyzZ89isVhra2s0Go1CoVgK/Tsjc+fO1dXVdXZ2/v777+Pj4/Py8nA4XH19fUdHR29v7/QNvrNMzklkaGgoPDxcXl4ecuxqw4YNWVlZnOQD3NPU1JSamqqvr8/hEjAerRj8/PwYDCYqKqquro4FztQTjJU1k8mk0+mdnZ0VFRU5OTnXr1+PiYn54Ycf/Pz8XFxczM3NNTU1paSkZjfooqKiysrKRkZGNjY269atCwgIOHr06KVLl+7cufPixYu6ujouPAkasGBsbKy+vj7kamMXF5fk5OSRhh47/vz58127dk3Hxzm3UVFDQ2Pz5s1lZWUsQKaXYKzHABEGg0Eikd68eXP79u3Tp09v2bLF0dFx4cKFWlpawPiBjIwMa/yAhzqTwKcUCoUSFRWVlJSUl5cHhmF0dHSsrKy8vLxCQ0MvX778+PHj2tpabugEjrIL5M9r165ZWVlB9jgsLS3PnTsHKTUqEeht/vLLLxYWFhNYucJt/PmqPmpqat999x0Oh2PhMKMEYzKZg4ODvb29XV1d7e3tjY2NHz58ePv2bXZ2dkJCwrFjx7Zs2eLq6goM+vNQyyYoKCguLq6lpWVlZeXp6blnz56zZ8/eunUrPz+/rKysvr4ej8cTCAQKhdLX18clnUBWDWAXSUtLc3d3h2SFgYHBsWPH2AmOTB8cHOzs7Dx27JiEhMTMD3d9lQ9TfsP8+fOPHTs20q/hTBNsJPpAvL+/n0gkAh9sT548ycjISE5OPn/+fERExIEDB4KDgzdu3Lhu3TpHR8dvv/0Wg8Ho6+urq6vLysqKioqOd4H/BAAFxiQkJCQUFBTmzZtnbGy8ePHipUuXOjs7e3l5YbHYPXv2HD9+PDo6Oi4uLjU1NTs7++XLl+Xl5Xg8vqenZ+SAErjs3JySk5MTEBAgJiYGBk1RUTE4OJgT5Xt6evLz8318fP4N7OLj41uxYkV2dvanT59Y4PzzBGOpMjICTJuQSKQPHz4UFBRkZWUBrAsLC9u9e7e/v7+7u/vy5cvNzc0xGIyJiYmxsbGBgYGuri4w/quhoQGMwquqqgLD9CoqKspfgtKXoKysrKKiwhrBV1NTU1dX19DQ0NLS0tHR0dXV1dfXNzIyMjExMTMzs7KycnR09PT0xGKxP/zwQ2Rk5MWLF2/cuPHw4cO3b982NzfPzLLRkfjMQLywsPDQoUNz584FE0xERMTPz29wcPCr6zkIBEJ0dDTkmkBgL7yUlBRgEe7/q6ioKC8vP8YaHWFh4U2bNrW1tY1cFcClBAPcFgwODvb391Op1O7ubjKZTCKRCARCe3t7a2trc3NzY2NjfX19VVVVcXHx8+fPs7Ozf/vtt+Tk5MTExEuXLp05cyYqKurEiRNHv4SDBw/u/RL27NkTEhISGhp64MAB4FJYWFhkZOSPP/544cKFxMTE1NTU27dv37t379mzZ8XFxdXV1fX19U1NTXg8vrW1taOjg0AgADP3PT09wCa3mZwFngFqAY+orq6OjY2FXK3Cz8/v7u7++fPnr7bPjY2Nnp6eioqKYJaiUCglJSVXV9cQHgk7d+7EYrH6+vrgsgAuagwNDSMjI+l0+sj3DvcSjMOaBKy4/fz586dPn/B4fH19fV1dXXV19fv373E4XElJydsv4c2bN399Ca9evSooKPjrr78KCwuBS8XFxTgcrqysrKqqqq6uDuBSe3s7mUym0Wi88snEIVyc39be3n7jxg12u8KcnJyqq6vH9iZGIpH+/PPPRYsWCQkJgSulgoKCp6dnYmLiSx4J9+/fj46O/uabb8Bl4ePjExAQ8Pb2Tk9PH4UwzxNsVHngn1OFQG9v74MHD5SVlSE/n2xsbHJzc0d+bICfW1ZW9uOPP6qqqoJrJAKBMDAwiIuLq6mpAQtyZ0pDQ8OZM2fMzMzAxeHn5xcVFY2KiqqoqBilPEywUYDAP/8PgaGhoYKCAj09PciR+m+++earHtSzsrLc3NwkJSUha6SlpWVxcTGvTFowmcySkhIXFxfI7q6QkJCamtq9e/dGfn0BOMIEgxnFFoHi4uJvv/0W8jPM2Ng4KiqK3YpEBoPR09Nz4cIFdXV1SH6qqalhsdjW1tavfsWxVW5mL3R1dWVkZOjo6EB2d9FotJeXV2Fh4civL0BBmGAzayieelpZWZmHhwfkAkItLa2dO3eOnFEdWbKBgYGqqqqQkBB28yi2trY///wzD42+lpeXnz59mp1PGjMzs8uXL0NukYYJNrJiwPG/IVBTU7Nz505dXV1wHw+NRnt6ehYWFv5N4P9/UCiUlJSUlStXggWBlKCgoOFpgAlsKvv/J8z0/7S0tHXr1rEbo3dxcampqYF8X8AEm2lT8dDzGhoaIiIiFi5cCOaJtLS0ubl5Xl4eZHEIBEJISIienh5YEIlEysjIxMTE8IpnMQaD0dfXFxUVpa2tDbkDEI1G7969u7u7G7K7O/sJNjQ01N3dTSKRRu5iBuKdnZ1UKhUSF8h6829LbG1tTUxMtLa2BvNEWFgYjUY/ePAA/NVBpVLLysrs7e3FxcXBghISEtbW1uDhbK7Flkaj1dbW+vv7s9u8Y2dnFx8fz07/2U8wBoNRWVn58uXLZ6BQUFDQ2Ng49mQOO+D+DekkEun+/ftOTk5gngCuDdLT08GT7I2NjTdv3tTX14dcrq2mpnb06NG3b9/yCoCfPn1KTU1dvnw5GAQgJSQk5OXLl+yKM/sJ1tfXd/r06TVr1tiBwrp161JSUj58+MAOnX95end3d2lpqYeHB2TdEhAQSEpK6uzsHIXS8+fPg4KClJSUwFIIBMLY2DgrK6utrW2UFNf+rK2t3bZtm46ODrg4SCRSSkoqISFhjPnA2U+w3t5ePz8/yM1ICgoK4eHhJSUlXGvdf1ax/v7+tra2jRs3QrZFw4d+xMTEfPz4kaUksIL0xo0bGAwGcpWwlJSUi4tLVVUVeL6IlQlXRahU6osXL5YsWQI5fgicqJyTkwNuxlmlgAkGE4xVGUZHhoaG6HT69u3bIfc1IxCIgwcPFhUVscQYDAaRSDx58iQ73xCmpqaHDx8Ge4Zh5cBtkZaWlpSUFAUFBXDzxcfHp6ure+DAgXfv3o2hNkwwmGBjVA/msEejAwcOyMjIgBsxBAKxdevWx48fs+T7+voeP37s6+sLvhmooJ6ensOubyCHs1mZcFXk6dOnO3bsgNxSwMfHZ21t/eTJkzH6h+Pz7MtVJedcGbiLyDlWkHdGRkZqaWmBGzEEAuHu7v7bb7+xpLq7u0+fPg3pEhhYrXfw4MH6+nqeGLYFWu+EhIQlS5ZArt6QlJT08fHp6OgYu7sLt2BwC8YiCHTk4sWLixYtAk8BIRCIZcuWXblyBRAbGhoiEAje3t6Qn7soFEpTU/Pq1avQz+C+1MHBwc+fP+/bt09YWBiyQTY1NQ0PDwfPUowqCkwwmGCjqsTon6mpqS4uLmAPDggEwsTE5NSpU4AAgUB48uSJpaUl+E4+Pj5ZWdlNmzY9efJkdO7c+vvz5885OTkeHh7gphvo7q5fvz4zMxMmGBPuIk6yDmdnZ2/cuBGym4RGo/fv3w/kX1ZWdvLkSS0tLfB4AAKB0NDQiI+PH+msYpJaTbd4S0vLyZMnITenCAgIDPt1PnnyJCd7bWZ/C0alUnfs2KGjoyMLCgYGBjExMSOdbE232Xgx/xcvXuzZswdyGZ6YmFhgYCBwhtODBw8cHBwg+4dIJBKDwbx+/ZpXju1mMBgVFRWrVq2CPGFMWFh42DvL77//zslm3NlPMNZKjjxQKCgoaGhogFdyjE379+/fR0VFQZ7BKSAg4OPj093d3dXVdeXKFTk5Ocj+oYaGxpYtW+rr6zmpkWMrMzNXgSUshoaGkMVRUVHx9fV9+fLlV/uH/4pRxJkxySx+Ch6PT0hIgJw45uPjW7NmDeCYaM+ePfz8/JDjAXZ2dgkJCTw0/YXD4SIjI9lNf5mYmCQlJY2cYR/D+rO/BRuj8PAlThCgUChpaWmSkpKQ5HFwcMjNzf3pp58gN6cAh7Vv3bq1tLSURqNx8rh//J6hoaH09HRXV1fI1RtIJNLe3r66uprD7i5MsH/coNyuwODgYE5OjqqqKmR/ydLSMjEx0dPTU0NDAzy8ISgoqKCgcOrUqZ6enjHWE3EPBENDQzQa7cyZM8rKypBuwzU0NIKDg8lkMofFgQnGPcblXk0KCgoWLlwI+UbX1dXFYrFGRkaQH2liYmIODg63b9/m3rL9XTMajfbu3bvAwEAkEgnZYtvb21+9erW/v//vcmx/wQRjCw18gYVAUVGRs7MzpL8XSUnJ4cFYdl9ow58xYWFhPLQ5pbOzMykpCfL4XKC7u2vXrsLCQs5Ha2CCsWoRHGGLQFlZmb+/v6amJrgTKCAgAJxaCL7Ez8+vqamZmZk53uMw2eox/ReG3csGBARAlhSJRMrKysbFxVEoFE7GDwFlYYJNv9F4/wk1NTWHDh0yNjYGs2iMFDk5uZUrV5aWlnLeofpnoerp6Xn9+vXSpUshG2Rpaenly5dnZ2dzzq5/xTD90NBQR0dHfX39B1BoaGjo7OyENP/g4GB3d3dLSwtI6MPHjx+bmpqoVCpkbaDT6cN7qCAf19TURCaTIT290Ol0CoXS3NwM+Tg8Hg+pJJPJ7O/vx+PxHz9+BAs2NzdTKJQpWVnb2Nh48eJFdk5t2XFs4cKFx48fx+PxkEBxYWJDQ0NycjJk88XHxzecHhYWxs6RFrvizP4WrL+//8qVK4GBgT6gsH379oyMjMbGRjA6ZDL51atXJ0+eBAn5+Pv7h4aGvn//HizFZDKJRGJ0dPTWrVvBgqGhoY8ePWptbQULEgiEZ8+eHT58GCyFxWKPHz8OqSSTyRxOH67EWCwWLHj48OFnz55NSfeso6Pj7t27tra27LgEme7u7v7nn3+OPE8VXHCuSsnLywsICIBcvcHHx2dmZpaXl0ckEsel8+wnGJVK/f77701MTFRBAYPBnD9/vry8HAzZp0+fMjMzvby8QEKqenp6S5cuffHiBViKyWS2tLRs2rTJ2NgYLLh06dJr165Beihobm6+ffu2s7MzWMrAwGD16tWQSjKZzPLy8tWrVxsYGIAFnZ2db9++3dzcDKnnuBLJZPLr169XrVoFSSRwIj8//9y5c0NDQ1tbWyFb7HE9fQZuHhoaGhgYSEpKMjU1hTwSTU5Oztvbu6GhgV1Xgp2Ss59gE1vs29bWdvPmTRsbG3DtERUV1dbWzsnJgcS0qanJxcUF0l+0jo7OuXPnKisrwYL19fVJSUkYDAb8OHFxcXNz89LSUrAUk8ksLS01NzeH9N+EwWCSkpIgvWFCZjVGIo1Ga2pq8vLyghy5Bus8Z84cExOTn3/+eYw8ueoSnU5vbW09cuSIkJAQpC9+MzOziIiICTj6hgkGvV0FJthIAgC+ATdv3sxu78YojklISGzbto2HNqf09vZmZ2d7e3uze4OsX7/+/v37E1iMAhMMJthIKrGNMxiMXbt2zZ07l10VZHEMgUAoKCjEx8dzuFqP7SNn8AKJRAoLC4PsQQgICAx3EMLCwhobGzmf/mLpDhMMJhirMnwlcuTIETU1ta8STFRUdMGCBXl5eRyu1vvKU6f/8sDAQF1d3dq1ayEPQxMRETE2Nr5x4waHa6NG6QsTDCbYqCrB9md0dPTwPnnITxRW88XHx6elpbVly5bq6upxzRexfer0XyASiTk5OQsWLIAsmqKiIhaLffbs2cQUgQkGE4zTmnPt2rUVK1Z89TPM1tY2OTm5o6OD03z/6ftKSkpOnDihrq4+8jXBiuvq6l6/fn3CY0Wzn2A0Gm3fvn2LFi3SBgVzc/NLly6BTyVkMpkEAiErK2v9+vUgIe358+cvX768oKAAsmK0trZisVgMBgMWXL58+S+//FJXVwcWxOPxd+7ccXNzA0uZmpp6eHhAKslkMisqKjw8PExNTcGCbm5ud+7cmcJ53vT0dG9v77EJhkAgVq1ade/ePRwOV8sjISkpycHBAXLgV0REZNmyZTgcbsLd3dlPsIGBgTt37pw8efIQKERFReXm5kLO/HZ3d+NwuKtXr4KEDh0/fvzs2bOQ01lMJpNMJicnJ4eHh4MFz549+/LlS0g3ep2dnUVFRZcuXQJLnThxIi4uDlJJJpPZ2toaFxd34sQJsOClS5eKiorArq3B9OYwJTc3NygoCOxeivWyB44qtrS0DA8PH3Y/yivB3d1dQkIC8sWhpaW1ffv2jo6OCXd3Zz/BGAxGU1PT+/fvS0GhvLy8vb0dctETnU7v6ur68OEDSKi0rKyssrKSnaOBgYGBjx8/lpWVgQUrKysJBAKkG73+/n4SiVRTUwOWKisrq62thVSSyWRSqdTa2lrIx9XU1JBIpPFOjI5BtpKSkiNHjkDukmJxDIFAyMnJmfBUQKPR7FwROzo6JiUlTWD6iwXj7CcYq6hwZJII1NfXx8bGQm67ZBFs1kQQCAQKhdq5c2dJSQnkO5FDMGGCcQgUfNv/9n6vX7/+LyEYEomUl5e/cOECnU6fcP/wX7GaHmbGVCEwMDCQmZkpIyMz9mfY7GjEJCUlV61axYlr0bHhhVuwsfGBr/4NgdzcXENDQ8ilj7ODV6xSoNHoyMjI8W5O+RtYX37ABANjAqewReD169dubm6Qh+uxquYsiCAQCCMjo7y8vMnvtYEJxrYywRfACDQ3N1+/ft3CwgJy0cMsoBZQBB0dnW3bttXV1U1+uypMMHAtglPYItDb21tXVxceHr58+XJtbW00Gq04i4KSkpK6uvqiRYt27dqVlZU1mdF5FoIwwVhQwBFOEWhqarp79+62bds8PDxWzqLg6urq4+MTGxtbXFzMKRZfuw8m2NcQgq+DEKDRaB0dHcObqUtKSt7OroDD4RoaGib/6cXCDCYYCwo4AiMw9QjABJt6TOEcYQRYCMAEY0EBR2AEph4BmGBTjymcI4wACwGYYCwo4AiMwNQjABNs6jGFc4QRYCEAE4wFBRyBEZh6BP4HhE0RBRH0MN4AAAAASUVORK5CYII=;" vertex="1" parent="1">
          <mxGeometry x="20" y="610" width="115.97" height="120" as="geometry" />
        </mxCell>
        <mxCell id="vTbGQ8BUd189eSrZLIuS-14" value="ACL / Permission Check" style="shape=process;whiteSpace=wrap;html=1;backgroundOutline=1;" vertex="1" parent="1">
          <mxGeometry x="315" y="470" width="120" height="60" as="geometry" />
        </mxCell>
      </root>
    </mxGraphModel>
  </diagram>
</mxfile>
